<?xml version="1.0" standalone="no"?>
<!DOCTYPE svg PUBLIC "-//W3C//DTD SVG 20010904//EN"
 "http://www.w3.org/TR/2001/REC-SVG-20010904/DTD/svg10.dtd">
<svg version="1.0" xmlns="http://www.w3.org/2000/svg"
 width="1884.000000pt" height="931.000000pt" viewBox="0 0 1884.000000 931.000000"
 preserveAspectRatio="xMidYMid meet">

<g transform="translate(0.000000,931.000000) scale(0.100000,-0.100000)"
fill="#000000" stroke="none">
<path d="M0 4655 l0 -4655 5421 0 5422 0 -7 42 c-19 117 -19 132 3 160 34 42
141 78 259 85 114 7 150 -3 182 -47 25 -35 25 -51 1 -95 -18 -34 -18 -36 3
-90 l21 -55 3768 0 3767 0 0 4655 0 4655 -9420 0 -9420 0 0 -4655z m2498 4319
c184 -38 321 -148 378 -304 11 -30 17 -89 20 -180 4 -166 -7 -207 -78 -285
-87 -95 -232 -145 -372 -128 l-61 7 60 7 c91 10 148 27 141 45 -4 9 2 14 17
14 18 0 19 -2 7 -10 -8 -5 -10 -10 -4 -10 17 0 127 69 162 103 38 36 86 100
60 79 -15 -12 -21 -11 -40 2 -12 9 -34 16 -49 16 -15 0 -43 7 -62 15 -50 21
-66 19 -60 -5 4 -14 0 -20 -12 -20 -11 0 -15 5 -11 15 3 8 1 15 -4 15 -6 0
-10 -8 -10 -17 0 -25 41 -43 64 -29 13 9 20 7 32 -8 14 -19 14 -19 14 2 0 32
23 27 39 -9 16 -37 5 -52 -36 -51 -15 0 -61 1 -100 2 -65 1 -73 3 -73 20 0 11
-4 20 -9 20 -5 0 -8 -8 -7 -17 1 -16 -11 -18 -114 -18 -63 0 -120 -4 -127 -8
-18 -12 -45 21 -34 42 14 25 -9 63 -43 72 -36 10 -46 4 -46 -26 0 -17 4 -22
18 -18 27 7 46 -21 33 -46 -10 -18 -20 -20 -89 -17 -43 1 -83 -2 -91 -8 -10
-8 -22 -1 -52 33 -150 169 -136 420 31 575 131 121 319 169 508 130z m10712
-309 c0 -34 1 -35 40 -35 39 0 40 1 40 35 0 24 5 35 15 35 12 0 15 -16 15 -85
0 -69 -3 -85 -15 -85 -11 0 -15 11 -15 40 l0 40 -40 0 -40 0 0 -40 c0 -29 -4
-40 -15 -40 -12 0 -15 16 -15 85 0 69 3 85 15 85 10 0 15 -11 15 -35z m1184
-50 l31 -80 3 83 c2 64 6 82 17 82 8 0 15 -9 15 -20 0 -15 7 -20 24 -20 33 0
56 -25 56 -62 0 -49 -24 -68 -87 -68 -47 0 -55 3 -65 25 -9 19 -19 25 -44 25
-27 0 -35 -5 -40 -25 -3 -14 -12 -25 -20 -25 -18 0 -19 -5 17 90 22 57 36 80
46 78 9 -2 29 -38 47 -83z m446 66 c0 -11 6 -22 13 -25 10 -5 10 -7 0 -12 -15
-7 -18 -94 -3 -94 6 0 10 -5 10 -11 0 -6 -10 -9 -22 -7 -20 3 -24 10 -29 63
-6 62 3 105 21 105 5 0 10 -9 10 -19z m120 -39 c0 -71 16 -98 53 -88 26 6 27
9 27 76 0 56 3 70 15 70 22 0 21 -127 -2 -152 -20 -22 -76 -24 -97 -2 -18 18
-23 154 -6 154 6 0 10 -26 10 -58z m872 41 c10 -9 18 -20 18 -25 0 -14 -28 -9
-34 7 -6 17 -43 20 -66 5 -10 -6 -15 -25 -15 -55 0 -30 5 -49 15 -55 25 -16
59 -11 70 10 12 22 30 27 30 8 0 -38 -66 -61 -110 -38 -44 23 -45 115 -3 148
24 17 73 15 95 -5z m318 -2 c0 -11 6 -22 13 -25 10 -5 10 -7 0 -12 -15 -7 -18
-94 -3 -94 6 0 10 -4 10 -10 0 -5 -9 -10 -20 -10 -19 0 -21 5 -34 99 -4 27 12
71 26 71 4 0 8 -9 8 -19z m300 0 c0 -11 6 -22 13 -25 10 -5 10 -7 0 -12 -15
-7 -18 -94 -3 -94 6 0 10 -4 10 -10 0 -5 -9 -10 -20 -10 -19 0 -21 5 -34 99
-4 27 12 71 26 71 4 0 8 -9 8 -19z m130 -51 c0 -67 1 -70 27 -76 37 -10 53 17
53 88 0 32 4 58 10 58 17 0 12 -136 -6 -154 -20 -21 -73 -20 -96 1 -24 22 -27
153 -3 153 12 0 15 -14 15 -70z m-3148 13 c22 -20 24 -76 2 -97 -18 -19 -65
-21 -82 -4 -19 19 -15 95 6 107 25 15 53 13 74 -6z m196 -50 c2 -39 -1 -63 -8
-63 -6 0 -10 23 -10 55 0 47 -3 55 -19 55 -23 0 -31 -19 -31 -71 0 -21 -4 -39
-10 -39 -5 0 -10 25 -10 55 0 47 -3 55 -19 55 -23 0 -31 -19 -31 -71 0 -21 -4
-39 -10 -39 -6 0 -10 28 -10 64 l0 63 78 -1 77 -1 3 -62z m120 55 c7 -7 12
-22 12 -35 0 -20 -5 -23 -40 -23 -29 0 -40 -4 -40 -15 0 -22 29 -30 52 -16 25
15 35 7 18 -14 -30 -36 -100 -5 -100 44 0 57 63 94 98 59z m906 -10 c33 -46 7
-108 -44 -108 -32 0 -60 31 -60 65 0 34 28 65 60 65 18 0 34 -8 44 -22z m56
-34 c0 -52 1 -55 23 -52 19 3 22 10 25 56 4 74 22 65 22 -11 l0 -64 -40 -1
c-47 -2 -60 15 -60 82 0 34 4 46 15 46 12 0 15 -13 15 -56z m468 44 c16 -16
15 -28 -3 -28 -8 0 -15 5 -15 10 0 6 -9 10 -20 10 -31 0 -23 -18 15 -34 36
-16 46 -41 23 -64 -17 -17 -63 -15 -78 3 -16 19 -5 34 12 17 15 -15 45 -16 53
-2 4 6 -10 17 -30 26 -41 17 -53 37 -35 59 15 18 61 20 78 3z m784 -5 c40 -36
11 -113 -42 -113 -35 0 -54 23 -54 65 0 18 6 40 13 49 17 21 60 20 83 -1z
m125 6 c19 -17 18 -119 -2 -119 -12 0 -15 13 -15 55 0 47 -3 55 -19 55 -23 0
-31 -19 -31 -71 0 -21 -4 -39 -10 -39 -6 0 -10 28 -10 63 l0 64 37 1 c20 1 42
-3 50 -9z m188 -1 c2 -7 5 -36 8 -65 l4 -51 -51 1 c-50 2 -51 3 -51 32 0 26 5
31 38 39 20 5 36 14 34 20 -5 15 -47 20 -47 7 0 -6 -7 -11 -15 -11 -18 0 -19
12 -3 28 16 16 78 15 83 0z m123 0 c16 -16 15 -28 -3 -28 -8 0 -15 5 -15 11 0
6 -10 9 -22 7 -20 -3 -23 -9 -23 -43 0 -31 4 -41 19 -43 10 -2 23 3 28 12 10
17 28 22 28 7 0 -18 -31 -41 -55 -41 -27 0 -55 34 -55 65 0 51 65 86 98 53z
m390 0 c16 -16 15 -28 -3 -28 -8 0 -15 5 -15 10 0 6 -9 10 -20 10 -31 0 -23
-18 15 -34 36 -16 46 -41 23 -64 -23 -23 -88 -9 -88 20 0 4 7 8 15 8 8 0 15
-5 15 -11 0 -14 42 -7 47 8 2 6 -10 14 -26 18 -37 8 -53 32 -40 57 11 21 59
24 77 6z m-14698 -468 c0 -5 -4 -10 -10 -10 -5 0 -10 5 -10 10 0 6 5 10 10 10
6 0 10 -4 10 -10z m117 -7 c3 -8 -13 -12 -51 -12 -52 0 -65 6 -50 22 11 11 97
2 101 -10z m63 2 c0 -9 -9 -15 -25 -15 -16 0 -25 6 -25 15 0 9 9 15 25 15 16
0 25 -6 25 -15z m58 -2 c2 -8 -6 -13 -22 -13 -25 0 -33 10 -19 24 10 10 36 3
41 -11z m60 0 c2 -8 -6 -13 -22 -13 -25 0 -33 10 -19 24 10 10 36 3 41 -11z
m179 1 c3 -8 -22 -12 -74 -12 -80 0 -97 3 -88 17 7 13 158 8 162 -5z m63 0 c0
-8 -10 -14 -25 -14 -38 0 -34 24 5 27 11 1 20 -4 20 -13z m44 7 c3 -5 -1 -11
-9 -15 -15 -6 -29 7 -18 18 9 9 21 8 27 -3z m-471 -46 c-6 -17 -25 -15 -31 3
-2 7 5 12 17 12 14 0 19 -5 14 -15z m65 3 c-7 -19 -35 -21 -41 -3 -5 11 0 15
19 15 16 0 24 -5 22 -12z m56 -3 c-4 -8 -12 -15 -20 -15 -8 0 -14 7 -14 15 0
8 9 15 20 15 13 0 18 -5 14 -15z m66 0 c0 -8 -9 -15 -19 -15 -10 0 -21 7 -25
15 -4 11 1 15 19 15 16 0 25 -6 25 -15z m54 0 c-4 -8 -12 -15 -20 -15 -8 0
-14 7 -14 15 0 8 9 15 20 15 13 0 18 -5 14 -15z m66 0 c0 -8 -9 -15 -20 -15
-11 0 -20 7 -20 15 0 8 9 15 20 15 11 0 20 -7 20 -15z m54 0 c-4 -8 -12 -15
-20 -15 -8 0 -14 7 -14 15 0 8 9 15 20 15 13 0 18 -5 14 -15z m5163 -921 c-3
-3 -12 -4 -19 -1 -8 3 -5 6 6 6 11 1 17 -2 13 -5z m-657 -24 c0 -5 -4 -10 -10
-10 -5 0 -10 5 -10 10 0 6 5 10 10 10 6 0 10 -4 10 -10z m-36 -9 c3 -5 -1 -12
-10 -15 -22 -9 -24 -8 -24 9 0 16 25 21 34 6z m526 -26 c0 -13 -4 -14 -20 -5
-11 6 -20 13 -20 15 0 3 9 5 20 5 11 0 20 -7 20 -15z m-120 -39 c0 -3 -4 -8
-10 -11 -5 -3 -10 -1 -10 4 0 6 5 11 10 11 6 0 10 -2 10 -4z m170 -11 c0 -8
-4 -15 -10 -15 -5 0 -10 7 -10 15 0 8 5 15 10 15 6 0 10 -7 10 -15z m-464 -35
c5 -44 11 -50 42 -44 22 4 34 0 53 -20 24 -25 69 -36 69 -16 0 6 5 10 10 10 6
0 15 -20 22 -45 7 -25 16 -45 20 -45 4 0 8 -7 8 -15 0 -26 -29 -16 -45 15 -9
18 -26 32 -43 36 -15 3 -32 7 -39 9 -6 2 -14 -6 -17 -18 -7 -28 -19 -15 -21
23 -2 38 -15 52 -52 54 -15 1 -34 5 -40 9 -18 11 -16 37 3 37 9 0 14 8 13 18
-2 26 0 36 7 29 4 -3 8 -20 10 -37z m424 20 c0 -5 -4 -10 -10 -10 -5 0 -10 5
-10 10 0 6 5 10 10 10 6 0 10 -4 10 -10z m-310 -20 c0 -5 -4 -10 -10 -10 -5 0
-10 5 -10 10 0 6 5 10 10 10 6 0 10 -4 10 -10z m567 -26 c-9 -9 -28 6 -21 18
4 6 10 6 17 -1 6 -6 8 -13 4 -17z m-827 6 c0 -5 -2 -10 -4 -10 -3 0 -8 5 -11
10 -3 6 -1 10 4 10 6 0 11 -4 11 -10z m425 0 c3 -5 1 -10 -4 -10 -6 0 -11 5
-11 10 0 6 2 10 4 10 3 0 8 -4 11 -10z m-329 -38 c-9 -9 -37 8 -31 18 5 8 11
7 21 -1 8 -6 12 -14 10 -17z m234 18 c0 -4 -6 -13 -14 -19 -11 -9 -19 -9 -35
1 -29 18 -26 24 14 25 19 1 35 -2 35 -7z m210 0 c0 -5 -4 -10 -10 -10 -5 0
-10 5 -10 10 0 6 5 10 10 10 6 0 10 -4 10 -10z m157 -16 c-9 -9 -28 6 -21 18
4 6 10 6 17 -1 6 -6 8 -13 4 -17z m101 14 c7 -7 20 -13 30 -13 9 0 17 -7 17
-15 0 -8 5 -18 10 -22 7 -5 6 -8 -1 -8 -5 0 -20 9 -32 20 -12 11 -28 20 -36
20 -24 0 -46 12 -40 21 8 13 38 11 52 -3z m-408 -51 c0 -18 -2 -17 -25 7 -14
15 -23 32 -19 37 9 15 44 -20 44 -44z m215 32 c8 -11 -25 -40 -37 -33 -10 6 9
44 22 44 5 0 12 -5 15 -11z m-623 -14 c0 -5 -5 -11 -11 -13 -6 -2 -11 4 -11
13 0 9 5 15 11 13 6 -2 11 -8 11 -13z m99 -26 c21 -11 18 -23 -9 -38 -15 -8
-18 -5 -20 20 -3 32 0 34 29 18z m544 -9 c-3 -5 -11 -10 -16 -10 -6 0 -7 5 -4
10 3 6 11 10 16 10 6 0 7 -4 4 -10z m-426 -46 c9 -8 -8 -15 -40 -17 -19 -1
-39 -9 -46 -17 -9 -12 -14 -12 -24 -3 -15 15 7 47 27 39 7 -3 16 -1 19 4 5 9
52 4 64 -6z m99 -2 c3 -9 -2 -13 -14 -10 -9 1 -19 9 -22 16 -3 9 2 13 14 10 9
-1 19 -9 22 -16z m192 8 c0 -5 -2 -10 -4 -10 -3 0 -8 5 -11 10 -3 6 -1 10 4
10 6 0 11 -4 11 -10z m-80 -31 c0 -11 -4 -17 -10 -14 -5 3 -10 13 -10 21 0 8
5 14 10 14 6 0 10 -9 10 -21z m-80 -26 c12 -4 12 -7 -4 -19 -11 -8 -28 -12
-38 -8 -9 3 -33 1 -52 -4 -31 -9 -34 -8 -38 12 -4 19 -1 22 18 18 12 -2 30 0
40 6 16 9 36 7 74 -5z m-190 -49 c0 -17 -22 -14 -28 4 -2 7 3 12 12 12 9 0 16
-7 16 -16z m-605 -204 c21 -22 35 -40 29 -40 -5 0 -28 18 -49 40 -21 22 -35
40 -29 40 5 0 28 -18 49 -40z m352 -12 c11 -13 29 -40 41 -60 l21 -38 -37 0
c-20 0 -53 3 -74 6 -32 6 -37 11 -43 41 -3 19 -8 40 -11 48 -12 30 76 32 103
3z m1118 12 c17 -6 15 -8 -15 -13 -19 -3 -70 -9 -112 -12 -43 -3 -110 -15
-150 -26 -115 -32 -129 -34 -88 -10 52 30 129 51 222 60 110 11 120 11 143 1z
m590 -94 c113 -42 145 -60 145 -81 0 -20 -39 -19 -67 0 -44 31 -120 63 -173
74 -30 7 -66 21 -80 32 l-25 20 50 -4 c28 -2 95 -21 150 -41z m-1580 -6 c3 -5
1 -10 -4 -10 -6 0 -11 5 -11 10 0 6 2 10 4 10 3 0 8 -4 11 -10z m-215 -52 c0
-10 -7 -18 -15 -18 -11 0 -15 11 -15 38 1 35 2 36 15 18 8 -11 15 -28 15 -38z
m290 33 c0 -12 -29 -23 -42 -15 -6 4 -5 10 3 15 18 11 39 11 39 0z m65 -21
l16 -31 -28 7 c-39 9 -43 13 -43 35 0 31 37 24 55 -11z m395 -5 c0 -8 -7 -15
-15 -15 -16 0 -20 12 -8 23 11 12 23 8 23 -8z m-40 -43 c0 -5 -9 -17 -19 -26
-22 -20 -40 -4 -21 19 13 16 40 20 40 7z m1478 -60 c4 -25 -13 -30 -22 -6 -9
25 -7 36 7 32 6 -3 13 -14 15 -26z m-2243 -2 c3 -5 1 -10 -4 -10 -6 0 -11 5
-11 10 0 6 2 10 4 10 3 0 8 -4 11 -10z m1100 -21 c-6 -33 -15 -36 -15 -6 0 15
4 27 9 27 6 0 8 -10 6 -21z m1300 -29 c3 -5 1 -10 -4 -10 -6 0 -11 5 -11 10 0
6 2 10 4 10 3 0 8 -4 11 -10z m-1393 -40 c-2 -7 3 -17 10 -21 10 -7 9 -9 -4
-9 -10 0 -18 4 -18 9 0 5 -3 17 -7 27 -4 12 -2 15 8 12 8 -3 13 -11 11 -18z
m-112 -3 c0 -7 -9 -13 -20 -13 -11 0 -20 6 -20 13 0 7 9 13 20 13 11 0 20 -6
20 -13z m47 -7 c-2 -24 -21 -21 -25 3 -2 10 3 17 12 17 9 0 14 -8 13 -20z
m120 -17 c-3 -10 -5 -4 -5 12 0 17 2 24 5 18 2 -7 2 -21 0 -30z m163 0 c0 -22
-2 -25 -10 -13 -13 20 -13 40 0 40 6 0 10 -12 10 -27z m1208 11 c27 -19 28
-30 3 -44 -26 -13 -65 4 -80 36 -10 23 -9 24 22 24 18 0 43 -7 55 -16z m-1301
-9 c0 -8 -4 -15 -9 -15 -4 0 -8 7 -8 15 0 8 4 15 8 15 5 0 9 -7 9 -15z m489
-5 c0 -11 -4 -20 -8 -20 -4 0 -8 9 -8 20 0 11 4 20 8 20 4 0 8 -9 8 -20z
m-1619 4 c-3 -3 -12 -4 -19 -1 -8 3 -5 6 6 6 11 1 17 -2 13 -5z m1413 -9 c0
-8 -2 -15 -4 -15 -2 0 -6 7 -10 15 -3 8 -1 15 4 15 6 0 10 -7 10 -15z m77 -17
c-3 -8 -6 -5 -6 6 -1 11 2 17 5 13 3 -3 4 -12 1 -19z m718 -8 c22 -43 18 -61
-5 -20 -11 19 -19 38 -20 43 0 15 10 6 25 -23z m-1369 -38 c-11 -10 -15 4 -8
28 l7 25 3 -23 c2 -13 1 -26 -2 -30z m69 26 c-12 -39 -25 -44 -25 -10 0 22 5
32 16 32 11 0 14 -6 9 -22z m-1007 1 c-2 -6 -8 -10 -13 -10 -5 0 -11 4 -13 10
-2 6 4 11 13 11 9 0 15 -5 13 -11z m1134 -19 c3 -19 0 -30 -7 -30 -6 0 -11 10
-9 23 1 12 3 25 3 30 2 17 9 5 13 -23z m134 -38 c-12 -12 -18 8 -10 35 l8 28
4 -28 c2 -16 1 -31 -2 -35z m-531 38 c3 -5 1 -10 -4 -10 -6 0 -11 5 -11 10 0
6 2 10 4 10 3 0 8 -4 11 -10z m608 -15 c3 -16 0 -24 -7 -22 -14 4 -21 47 -8
47 5 0 12 -11 15 -25z m-133 -2 c0 -15 -2 -16 -10 -3 -6 10 -10 11 -10 3 0 -7
-4 -13 -10 -13 -5 0 -10 7 -10 15 0 8 9 15 20 15 12 0 20 -7 20 -17z m350 -19
c0 -8 -4 -12 -10 -9 -5 3 -10 10 -10 16 0 5 5 9 10 9 6 0 10 -7 10 -16z m50
-16 c0 -5 -4 -8 -10 -8 -5 0 -10 10 -10 23 0 18 2 19 10 7 5 -8 10 -18 10 -22z
m68 18 c-13 -14 -28 -12 -28 5 0 5 9 9 20 9 17 0 19 -2 8 -14z m59 -8 c-3 -8
-6 -5 -6 6 -1 11 2 17 5 13 3 -3 4 -12 1 -19z m723 1 c0 -5 -4 -9 -10 -9 -5 0
-10 7 -10 16 0 8 5 12 10 9 6 -3 10 -10 10 -16z m-980 -1 c0 -4 -4 -8 -9 -8
-6 0 -12 4 -15 8 -3 5 1 9 9 9 8 0 15 -4 15 -9z m-800 -27 c0 -11 -5 -23 -11
-27 -15 -9 -33 12 -26 30 9 23 37 20 37 -3z m500 2 c-1 -11 -26 -43 -33 -43
-4 0 -1 11 5 25 10 23 28 35 28 18z m-1993 -25 c-3 -8 -6 -5 -6 6 -1 11 2 17
5 13 3 -3 4 -12 1 -19z m33 2 c0 -11 -4 -20 -8 -20 -4 0 -8 9 -8 20 0 11 4 20
8 20 4 0 8 -9 8 -20z m50 -2 c0 -18 -2 -20 -9 -8 -6 8 -7 18 -5 22 9 14 14 9
14 -14z m28 -9 c-3 -8 -7 -3 -11 10 -4 17 -3 21 5 13 5 -5 8 -16 6 -23z m2156
-3 c-7 -19 -34 -15 -34 4 0 9 3 20 7 23 10 10 33 -13 27 -27z m-209 4 c0 -22
-29 -18 -33 3 -3 14 1 18 15 15 10 -2 18 -10 18 -18z m69 -11 c-8 -14 -34 -11
-34 4 0 8 3 17 7 20 9 9 34 -13 27 -24z m179 6 c-3 -9 -8 -14 -10 -11 -3 3 -2
9 2 15 9 16 15 13 8 -4z m24 -17 c-3 -8 -6 -5 -6 6 -1 11 2 17 5 13 3 -3 4
-12 1 -19z m143 14 c0 -4 -9 -8 -20 -8 -11 0 -20 4 -20 8 0 4 9 8 20 8 11 0
20 -4 20 -8z m879 5 c-2 -2 -22 -14 -44 -26 l-40 -23 28 26 c15 14 35 26 44
26 9 0 14 -1 12 -3z m-959 -17 c0 -5 -5 -10 -11 -10 -5 0 -7 5 -4 10 3 6 8 10
11 10 2 0 4 -4 4 -10z m-903 -85 c2 -44 6 -96 9 -115 7 -37 9 -51 19 -140 l6
-55 -24 26 c-20 22 -26 45 -35 128 -7 56 -12 133 -12 172 0 61 2 70 17 67 14
-3 18 -17 20 -83z m329 50 c1 -14 1 -25 -2 -25 -8 0 -22 45 -17 53 8 13 16 0
19 -28z m-116 10 c0 -8 -4 -15 -9 -15 -13 0 -22 16 -14 24 11 11 23 6 23 -9z
m40 -7 c0 -16 -3 -19 -11 -11 -6 6 -8 16 -5 22 11 17 16 13 16 -11z m132 -3
c3 -14 1 -25 -3 -25 -5 0 -9 11 -9 25 0 14 2 25 4 25 2 0 6 -11 8 -25z m78
-21 c0 -8 -7 -14 -15 -14 -15 0 -21 21 -9 33 10 9 24 -2 24 -19z m611 12 c5 3
9 -3 9 -14 0 -10 -7 -19 -15 -19 -10 0 -15 10 -14 26 0 14 3 20 6 13 2 -6 9
-10 14 -6z m119 2 c0 -7 -5 -20 -10 -28 -8 -12 -10 -9 -10 13 0 15 5 27 10 27
6 0 10 -6 10 -12z m-660 -15 c0 -15 -2 -16 -10 -3 -6 10 -10 11 -10 3 0 -7 -4
-13 -10 -13 -5 0 -10 7 -10 15 0 8 9 15 20 15 12 0 20 -7 20 -17z m330 5 c0
-9 3 -8 10 2 7 12 9 11 8 -5 -2 -26 -38 -28 -38 -3 0 10 5 18 10 18 6 0 10 -6
10 -12z m141 -2 c5 3 9 -1 9 -8 0 -8 -9 -14 -20 -15 -11 -1 -20 4 -20 11 0 17
14 30 18 17 2 -6 8 -9 13 -5z m-2471 -27 c0 -10 -4 -19 -10 -19 -5 0 -10 12
-10 26 0 14 4 23 10 19 6 -3 10 -15 10 -26z m57 -6 c-3 -10 -5 -4 -5 12 0 17
2 24 5 18 2 -7 2 -21 0 -30z m90 0 c-3 -10 -5 -4 -5 12 0 17 2 24 5 18 2 -7 2
-21 0 -30z m1983 27 c0 -5 -7 -7 -15 -4 -8 4 -15 8 -15 10 0 2 7 4 15 4 8 0
15 -4 15 -10z m-2043 -32 c-3 -7 -5 -2 -5 12 0 14 2 19 5 13 2 -7 2 -19 0 -25z
m1553 -4 c0 -13 -4 -24 -8 -24 -5 0 -9 13 -9 30 0 16 4 27 9 24 4 -3 8 -16 8
-30z m-53 0 c2 -10 0 -13 -3 -6 -3 6 -10 10 -15 6 -5 -3 -9 2 -9 11 0 23 24
13 27 -11z m110 -9 c-9 -18 -13 -20 -15 -9 -5 21 6 46 17 40 5 -4 4 -16 -2
-31z m129 -7 c4 -7 3 -8 -4 -4 -7 4 -12 3 -12 -3 0 -5 6 -12 13 -14 7 -3 5 -6
-5 -6 -18 -1 -24 19 -11 32 9 9 11 9 19 -5z m139 -16 c2 -29 -19 -22 -23 7 -3
15 1 22 9 19 7 -2 13 -14 14 -26z m-695 3 c0 -8 -4 -15 -10 -15 -5 0 -10 7
-10 15 0 8 5 15 10 15 6 0 10 -7 10 -15z m621 6 c7 11 9 10 9 -3 0 -10 -6 -18
-14 -18 -18 0 -28 14 -18 24 3 4 8 2 11 -5 2 -8 6 -7 12 2z m799 -11 c0 -11
-2 -20 -4 -20 -2 0 -6 9 -9 20 -3 11 -1 20 4 20 5 0 9 -9 9 -20z m-660 -11 c0
-24 -23 -21 -28 4 -2 10 3 17 12 17 10 0 16 -9 16 -21z m80 -9 c0 -6 -4 -10
-10 -10 -5 0 -10 6 -10 13 0 8 -4 7 -10 -3 -8 -12 -10 -11 -10 8 0 20 3 21 20
12 11 -6 20 -15 20 -20z m60 7 c0 -8 -7 -14 -15 -14 -8 0 -15 6 -15 14 0 7 7
13 15 13 8 0 15 -6 15 -13z m78 -7 c2 -10 -6 -15 -23 -15 -17 0 -25 5 -25 18
0 23 43 20 48 -3z m62 6 c0 -20 -19 -31 -32 -18 -6 6 -7 15 -4 21 10 16 36 13
36 -3z m255 -8 c6 -4 2 -8 -7 -8 -10 0 -18 7 -18 17 0 9 3 12 8 7 4 -5 12 -12
17 -16z m620 2 c0 -8 -8 -16 -17 -18 -13 -2 -18 3 -18 18 0 15 5 20 18 18 9
-2 17 -10 17 -18z m-3066 -31 c-13 -25 -14 -24 -14 10 0 22 3 27 12 19 9 -7
10 -16 2 -29z m648 -16 c-3 -10 -5 -2 -5 17 0 19 2 27 5 18 2 -10 2 -26 0 -35z
m1055 15 c-6 -6 -15 -9 -18 -5 -4 3 -4 14 0 23 5 13 9 15 18 6 9 -9 9 -15 0
-24z m-1919 2 c4 -16 0 -20 -19 -20 -13 0 -24 4 -24 10 0 5 8 6 18 3 15 -6 15
-5 3 10 -11 15 -11 17 2 17 8 0 17 -9 20 -20z m85 -1 c2 -13 -4 -17 -22 -15
-18 1 -26 7 -26 19 0 24 43 19 48 -4z m72 11 c0 -5 -8 -10 -17 -10 -15 0 -16
-2 -3 -10 13 -8 13 -10 -2 -10 -9 0 -20 5 -23 10 -9 15 4 30 26 30 10 0 19 -4
19 -10z m2250 -47 c0 -22 -2 -25 -10 -13 -6 10 -10 11 -10 3 0 -7 -4 -13 -10
-13 -16 0 -12 22 8 36 23 18 22 18 22 -13z m813 -75 c-10 -234 -33 -441 -62
-554 -17 -67 -72 -216 -97 -266 -13 -26 -24 -49 -24 -51 0 -3 16 -7 36 -10
116 -19 171 -170 101 -276 -45 -67 -131 -89 -217 -55 -50 20 -76 56 -91 123
-6 28 -12 51 -14 51 -3 0 -20 -8 -40 -17 -33 -16 -36 -20 -33 -58 3 -37 5 -40
31 -37 25 3 27 0 27 -32 0 -38 -12 -46 -70 -46 -53 0 -81 25 -87 81 l-5 45
-51 -13 c-61 -16 -106 -17 -142 -3 -45 17 -175 41 -203 38 -21 -3 -14 -7 28
-16 30 -6 72 -14 93 -17 37 -6 37 -6 23 -33 -8 -15 -26 -38 -40 -51 -17 -16
-26 -35 -26 -55 0 -17 -7 -59 -15 -94 -8 -35 -19 -109 -24 -165 -6 -68 -16
-115 -30 -142 -68 -134 -83 -270 -42 -385 17 -47 25 -96 29 -178 5 -108 4
-114 -14 -111 -11 2 -30 -7 -43 -20 -21 -21 -23 -27 -12 -56 15 -41 14 -66 -3
-112 -7 -21 -26 -85 -41 -143 -22 -82 -34 -111 -56 -132 -16 -15 -29 -32 -29
-39 0 -18 -67 -156 -79 -164 -15 -8 -14 -3 8 79 22 83 35 176 24 176 -4 0 -24
-27 -43 -61 -26 -45 -39 -59 -54 -57 -20 3 -24 13 -41 93 -7 30 -7 30 -36 -27
-42 -84 -111 -114 -144 -64 -19 29 -21 77 -6 166 6 36 11 91 11 123 0 84 31
151 85 182 23 14 49 25 57 25 26 0 79 -94 87 -153 8 -54 13 -51 31 19 21 82
70 87 95 9 6 -19 7 -19 20 5 19 33 19 50 0 50 -9 0 -15 10 -15 26 0 23 -3 25
-29 19 -23 -5 -32 -2 -43 14 -15 21 -15 21 -27 -5 -16 -36 -42 -27 -65 21 -31
67 -46 69 -110 20 -53 -40 -75 -43 -101 -15 -10 12 -31 20 -48 20 -17 0 -38 7
-48 16 -21 19 -36 12 -119 -52 -52 -39 -58 -41 -80 -28 -30 16 -96 18 -106 3
-3 -6 -19 -9 -35 -7 -18 3 -28 0 -26 -6 3 -9 -33 -46 -45 -46 -9 0 -5 35 4 47
5 6 12 36 15 65 3 36 13 61 28 78 18 20 21 30 14 49 -9 23 -9 23 -39 -14 -17
-21 -33 -50 -37 -64 -3 -14 -13 -37 -22 -51 -9 -14 -23 -38 -31 -53 -11 -21
-20 -27 -39 -25 -14 2 -30 12 -36 23 -21 43 -54 68 -87 68 -18 0 -36 4 -39 9
-4 6 -19 3 -37 -6 -54 -28 -57 -24 -54 59 3 59 0 78 -13 91 -15 16 -18 16 -35
-2 -11 -10 -21 -28 -22 -39 -2 -11 -7 -26 -11 -32 -5 -8 -3 -13 3 -13 13 0 10
-72 -4 -82 -6 -4 0 -11 13 -16 16 -6 20 -11 12 -16 -16 -10 -73 3 -65 15 3 5
11 6 17 3 7 -4 8 -3 4 1 -4 5 -29 10 -55 12 -106 5 -133 17 -158 65 -14 27
-14 30 15 59 27 26 29 33 19 54 -13 28 -39 33 -58 10 -7 -8 -18 -15 -24 -15
-6 0 -5 4 3 9 8 5 9 11 3 15 -10 6 -27 -22 -23 -38 1 -5 -5 -4 -13 4 -9 7 -16
10 -16 7 0 -3 -3 -13 -7 -23 -5 -14 -2 -16 14 -12 11 3 27 0 36 -7 15 -11 14
-12 -9 -12 -14 0 -30 -6 -34 -12 -4 -7 -15 -14 -26 -15 -13 -2 -25 -21 -40
-65 -25 -74 -34 -84 -65 -79 -30 4 -36 26 -7 30 15 2 24 11 26 26 4 28 -16 55
-35 48 -12 -5 -17 6 -14 27 0 4 -8 7 -18 7 -16 0 -19 -6 -18 -32 2 -27 -2 -34
-20 -36 -21 -3 -23 0 -23 49 0 51 0 52 -20 34 -12 -11 -20 -31 -20 -52 0 -26
-4 -33 -20 -33 -17 0 -20 7 -20 50 0 32 -4 50 -12 50 -9 0 -9 3 0 12 19 19 15
47 -6 42 -24 -7 -31 -118 -8 -127 26 -10 18 -27 -13 -27 -39 0 -43 8 -42 85 0
51 -3 65 -14 65 -20 0 -19 19 0 26 8 4 15 17 15 30 0 13 2 24 4 24 2 0 11 3
20 6 12 5 16 -1 16 -24 0 -29 2 -31 43 -34 40 -3 42 -5 42 -34 -1 -25 3 -30
17 -26 19 5 25 32 8 32 -5 0 -10 7 -10 15 0 8 6 15 13 15 8 0 7 4 -3 10 -12 8
-12 10 -1 10 11 0 11 3 1 15 -9 11 -16 13 -24 5 -16 -16 -46 -12 -46 6 0 12 8
15 38 10 41 -5 82 2 82 14 0 5 -9 6 -20 3 -11 -3 -26 -3 -35 0 -23 10 -7 35
28 43 l32 8 -35 6 c-22 3 -40 0 -48 -7 -16 -15 -26 -17 -17 -3 3 6 1 10 -4 10
-6 0 -27 16 -47 35 -19 19 -40 35 -45 35 -6 0 -7 5 -4 10 3 6 1 10 -5 10 -8 0
-8 6 0 20 11 20 34 27 43 13 2 -5 2 -2 1 5 -2 6 4 12 14 12 16 1 16 1 -1 11
-9 5 -23 7 -30 3 -7 -5 -7 -1 2 10 8 9 20 15 26 12 14 -5 40 23 40 44 0 8 7
14 15 12 8 -2 11 0 7 5 -5 4 -14 8 -20 8 -5 0 -12 6 -15 13 -2 8 3 10 15 6 15
-5 15 -4 3 5 -8 6 -24 11 -35 11 -17 1 -17 2 4 11 18 7 21 13 13 21 -6 6 -8
17 -5 26 4 10 2 13 -5 8 -7 -4 -20 -2 -29 4 -16 10 -16 11 2 5 15 -5 17 -3 8
6 -15 15 -34 3 -26 -16 4 -11 1 -13 -11 -9 -9 3 -16 10 -16 15 0 5 -5 9 -11 9
-6 0 -8 -7 -5 -16 5 -14 4 -15 -9 -4 -8 7 -13 15 -11 19 3 4 -4 7 -14 8 -11 1
-22 -2 -25 -8 -4 -5 2 -6 12 -2 17 6 17 5 -1 -15 -10 -12 -22 -19 -27 -17 -4
3 -11 0 -16 -7 -4 -7 -15 -14 -25 -14 -12 -1 -15 5 -13 27 4 31 -9 46 -28 31
-7 -5 -21 -6 -32 -1 -18 7 -18 8 5 8 14 1 37 9 50 18 30 21 87 25 94 6 3 -7
18 -13 33 -13 23 0 25 2 13 11 -12 9 -12 10 4 5 10 -4 26 -1 34 6 13 11 14 11
7 -1 -6 -11 -4 -13 9 -8 10 4 15 3 11 -3 -3 -5 9 -7 32 -4 44 5 57 14 20 14
-53 0 -33 15 23 17 54 1 58 0 58 -23 0 -13 -4 -21 -9 -19 -4 3 -10 1 -13 -4
-4 -5 2 -11 11 -14 17 -4 17 -5 -1 -12 -13 -6 -23 -3 -31 8 -13 18 -40 23 -49
8 -3 -5 2 -8 12 -7 11 1 18 -7 20 -25 2 -18 -1 -26 -10 -25 -7 0 -14 -2 -15
-6 -2 -5 -2 -8 0 -7 1 0 15 -6 31 -15 16 -8 34 -12 39 -9 6 4 8 -1 3 -12 -6
-16 -4 -16 11 -4 15 12 16 12 10 -3 -4 -13 4 -10 34 11 22 15 57 28 77 29 20
2 38 6 40 10 10 28 25 37 65 41 5 1 5 6 2 11 -3 6 -2 10 3 10 10 0 24 -41 17
-48 -3 -3 -11 1 -20 8 -10 8 -15 9 -15 2 0 -7 -7 -9 -17 -5 -10 4 -14 2 -10
-4 4 -6 28 -11 54 -10 26 0 42 2 35 5 -10 3 -10 7 -1 18 9 11 8 15 -4 20 -19
7 -18 44 1 44 8 0 12 -6 9 -14 -4 -11 1 -14 21 -12 14 2 28 8 30 15 2 6 -3 9
-11 5 -8 -3 -18 0 -23 7 -5 8 -3 10 6 4 9 -5 10 -2 5 14 -6 18 -2 21 27 22 18
1 38 2 43 4 6 1 15 3 21 3 21 3 25 34 7 48 -21 16 -37 18 -28 4 3 -5 -1 -10
-10 -10 -9 0 -14 -4 -10 -9 3 -5 1 -12 -5 -16 -6 -3 -13 1 -16 9 -3 9 -16 16
-28 17 -19 0 -19 1 4 10 18 8 21 12 11 18 -7 5 -21 6 -31 4 -10 -3 -20 2 -24
12 -5 13 -2 16 11 11 15 -6 14 -4 -2 14 -19 20 -19 21 0 14 17 -7 18 -6 5 8
-12 13 -17 13 -28 1 -16 -16 -36 -17 -26 -1 4 7 3 8 -5 4 -6 -4 -18 -2 -26 4
-8 6 -19 9 -25 5 -5 -3 -10 -2 -10 4 0 5 5 13 11 16 6 4 8 14 5 22 -3 8 -1 11
4 8 6 -3 10 -12 10 -20 0 -19 27 -26 43 -10 10 10 17 11 25 3 6 -6 16 -7 24
-2 7 5 18 9 23 9 6 0 9 8 9 18 -2 22 12 22 25 0 5 -10 13 -14 18 -9 4 5 3 11
-4 13 -7 2 -9 11 -6 20 4 10 2 14 -4 10 -6 -4 -19 0 -27 9 -15 15 -20 12 -17
-11 1 -5 -6 -1 -14 9 -18 24 -19 36 -2 36 7 0 8 3 2 8 -6 4 -16 19 -22 34 -11
24 -10 26 4 21 10 -4 14 -2 10 4 -4 6 -25 13 -48 16 -22 3 -48 12 -58 21 -23
21 -42 20 -80 -1 -27 -16 -33 -16 -41 -3 -7 12 -10 11 -17 -5 -4 -11 -13 -21
-20 -22 -93 -18 -182 -22 -213 -10 -14 6 -29 11 -35 13 -5 2 -20 6 -32 10 -14
4 -23 2 -23 -5 0 -6 -12 -11 -26 -11 -16 0 -23 4 -18 11 4 8 1 8 -14 0 -12 -6
-25 -11 -29 -10 -23 4 -32 -2 -26 -18 4 -11 3 -14 -5 -9 -7 4 -12 2 -12 -3 0
-10 14 -15 32 -12 4 0 4 -7 1 -16 -6 -15 -5 -15 17 0 32 22 43 21 35 -2 -4
-13 1 -24 15 -34 21 -15 11 -35 -10 -22 -6 4 -17 1 -25 -5 -8 -7 -15 -8 -15
-3 0 5 -22 8 -50 5 -46 -3 -50 -2 -50 19 0 20 -1 21 -18 6 -13 -12 -22 -13
-35 -5 -10 5 -21 8 -24 5 -8 -9 -40 27 -35 40 2 7 8 10 13 7 6 -3 17 0 26 8
12 9 15 9 9 1 -10 -17 5 -16 30 1 12 8 34 17 49 19 16 2 31 9 33 16 2 6 -2 10
-10 9 -7 -2 -12 3 -11 10 2 6 -7 12 -20 12 -20 1 -20 2 -4 11 9 6 15 15 12 20
-4 5 -12 6 -18 3 -7 -4 -8 -3 -4 2 10 10 58 13 51 3 -2 -4 3 -10 12 -13 14 -5
15 -1 10 21 -3 16 -16 76 -29 134 -13 60 -30 114 -40 123 -19 20 -22 36 -6 36
7 0 9 10 5 25 -3 14 -9 36 -12 50 -6 24 -5 25 45 25 47 0 51 -2 57 -27 3 -16
10 -41 14 -58 5 -16 12 -50 16 -75 3 -24 12 -60 18 -79 l12 -34 18 62 c17 62
17 63 -3 78 -24 16 -27 29 -7 36 10 4 12 0 8 -15 -3 -15 -1 -19 9 -16 8 3 22
32 32 66 l19 62 58 0 57 0 18 -62 c40 -148 46 -165 59 -165 8 0 20 28 30 76
38 165 30 151 87 151 54 0 52 4 34 -57 -7 -26 2 -29 30 -10 11 8 42 27 69 42
46 27 48 27 37 6 -7 -12 -42 -37 -79 -54 -49 -24 -68 -39 -70 -55 l-3 -22 50
26 c28 14 56 22 61 19 6 -3 10 1 10 10 0 8 6 18 13 20 6 2 26 10 42 16 17 7
34 13 38 13 4 1 11 6 15 12 9 13 42 26 42 16 0 -5 -5 -13 -12 -20 -9 -9 -9
-15 0 -24 10 -10 15 -10 22 2 7 11 10 11 10 2 0 -7 5 -10 10 -7 6 3 13 -1 16
-9 3 -9 11 -16 17 -16 5 0 3 8 -7 19 -13 14 -14 20 -4 28 37 29 88 44 148 44
44 1 71 6 82 16 9 8 23 13 30 10 7 -2 25 2 39 9 15 7 35 12 46 10 10 -2 34 3
53 12 19 8 44 14 55 14 11 -1 14 1 7 4 -17 8 -5 24 19 24 10 0 19 4 19 10 0 5
-8 6 -17 3 -16 -6 -17 -5 -3 13 8 10 32 35 52 55 21 20 38 42 38 50 0 8 5 20
12 27 18 18 18 39 -2 57 -15 13 -23 14 -39 5 -12 -6 -26 -8 -32 -4 -6 4 -15 0
-20 -7 -4 -7 -11 -10 -14 -7 -4 4 8 21 26 40 19 18 33 36 32 40 -2 4 11 20 27
37 17 16 30 32 30 36 0 13 28 34 51 38 13 3 43 8 67 12 34 5 49 16 78 51 l36
44 70 0 c66 0 71 -2 103 -34 36 -38 55 -94 35 -106 -8 -5 -10 -18 -5 -39 4
-20 2 -37 -5 -46 -7 -9 -11 -35 -9 -63 2 -26 3 -92 3 -147 0 -121 -16 -163
-97 -247 l-54 -56 29 -43 c38 -56 40 -148 5 -200 -50 -75 -138 -100 -224 -64
-34 14 -38 14 -47 -2 -6 -10 -10 -34 -11 -54 0 -38 12 -53 74 -90 19 -12 30
-24 25 -27 -20 -15 -7 -38 36 -61 39 -21 67 -26 196 -34 177 -12 194 -8 254
61 25 28 45 42 54 39 9 -3 22 -32 31 -64 31 -113 36 -118 86 -82 73 52 95 140
61 249 -14 43 -23 56 -40 58 -20 3 -22 9 -22 59 0 44 -7 69 -37 125 -33 64
-38 69 -50 52 -9 -12 -13 -52 -13 -126 l0 -108 -50 0 -50 0 0 119 c0 95 -3
123 -16 135 -21 22 -31 20 -59 -9 -24 -23 -25 -31 -25 -135 l0 -110 -50 0 -50
0 0 165 0 165 45 0 c33 0 45 -4 45 -15 0 -12 6 -11 33 5 42 26 101 26 138 -1
l29 -20 -35 73 c-19 40 -35 78 -35 85 0 7 -4 21 -9 31 -19 36 -60 138 -67 167
-7 27 -6 29 9 17 9 -8 30 -39 48 -70 61 -110 146 -213 159 -193 11 16 67 -9
79 -36 12 -26 14 -26 25 -10 7 9 18 17 25 17 14 0 14 0 0 39 -10 28 -13 30
-24 15 -6 -9 -17 -14 -22 -11 -14 8 -4 57 11 57 7 0 10 14 8 40 -4 39 -3 40
28 40 40 0 70 16 71 38 0 13 3 12 11 -5 14 -29 28 -30 28 -2 0 27 33 22 39 -6
2 -11 10 -24 18 -30 9 -7 17 -36 20 -73 6 -62 19 -87 18 -35 0 21 5 28 20 28
16 0 20 -7 21 -35 1 -63 14 -95 49 -123 41 -33 70 -83 66 -116 -2 -13 1 -21 7
-17 6 4 8 -2 5 -15 -5 -19 -3 -20 18 -14 13 4 25 11 27 16 2 4 10 5 18 2 8 -3
14 1 14 8 0 10 2 11 8 2 4 -7 38 -15 75 -19 l67 -7 0 52 c0 44 -3 51 -20 51
-16 0 -20 7 -20 35 0 28 4 35 19 35 15 0 21 8 23 32 2 26 11 37 43 55 22 13
43 23 48 23 4 0 7 -25 7 -55 0 -54 0 -55 30 -55 28 0 30 -3 30 -35 0 -32 -2
-35 -30 -35 -27 0 -30 -3 -30 -30 0 -16 5 -30 11 -30 22 0 79 48 148 124 157
172 241 448 257 836 6 143 8 160 22 160 5 0 7 -46 5 -102z m-953 67 c0 -8 -7
-15 -15 -15 -8 0 -15 7 -15 15 0 8 7 15 15 15 8 0 15 -7 15 -15z m78 -2 c2 -8
-6 -13 -22 -13 -17 0 -26 5 -26 16 0 19 41 16 48 -3z m-2388 -23 c10 -6 11
-10 3 -10 -16 0 -17 -27 -1 -32 9 -3 9 -6 1 -11 -7 -4 -18 5 -26 22 -19 38 -9
52 23 31z m890 -67 c-7 -37 -17 -75 -22 -83 -7 -12 -8 -10 -4 5 4 20 8 42 21
119 3 21 9 36 12 32 3 -3 0 -36 -7 -73z m-970 47 c0 -5 -7 -7 -16 -3 -12 4
-15 2 -12 -8 3 -8 11 -13 17 -11 6 1 11 -2 11 -8 0 -13 -27 -13 -35 0 -10 16
2 40 20 40 8 0 15 -4 15 -10z m152 -15 c3 -16 1 -25 -7 -25 -7 0 -15 11 -17
25 -3 16 -1 25 7 25 7 0 15 -11 17 -25z m91 5 c7 -26 27 -26 27 1 0 30 44 22
48 -8 3 -17 0 -21 -12 -17 -23 9 -20 -22 4 -49 32 -33 22 -52 -28 -53 -23 0
-42 4 -42 9 0 5 -6 4 -13 -2 -16 -12 -27 -5 -27 18 0 9 17 24 38 33 20 9 29
17 20 17 -25 1 -58 32 -58 53 0 25 36 23 43 -2z m-313 -21 c0 -6 -4 -7 -10 -4
-5 3 -10 11 -10 16 0 6 5 7 10 4 6 -3 10 -11 10 -16z m1910 -29 c0 -5 -7 -7
-15 -4 -8 4 -15 8 -15 10 0 2 7 4 15 4 8 0 15 -4 15 -10z m55 0 c3 -5 -1 -10
-9 -10 -9 0 -16 5 -16 10 0 6 4 10 9 10 6 0 13 -4 16 -10z m60 -10 c3 -5 -1
-10 -9 -10 -9 0 -16 5 -16 10 0 6 4 10 9 10 6 0 13 -4 16 -10z m-2032 -31 c-3
-10 0 -19 6 -19 6 0 11 -4 11 -10 0 -5 -7 -10 -15 -10 -16 0 -39 46 -30 60 10
17 33 -1 28 -21z m2097 21 c0 -5 -7 -10 -15 -10 -8 0 -15 5 -15 10 0 6 7 10
15 10 8 0 15 -4 15 -10z m67 -6 c-3 -3 -12 -4 -19 -1 -8 3 -5 6 6 6 11 1 17
-2 13 -5z m63 -4 c0 -5 -4 -10 -9 -10 -6 0 -13 5 -16 10 -3 6 1 10 9 10 9 0
16 -4 16 -10z m68 -9 c3 -8 -1 -12 -9 -9 -7 2 -15 10 -17 17 -3 8 1 12 9 9 7
-2 15 -10 17 -17z m-2210 -9 c2 -7 -5 -12 -15 -13 -16 0 -16 -1 2 -9 19 -8 19
-9 -1 -9 -25 -1 -38 21 -21 38 13 13 29 10 35 -7z m80 -12 l2 -25 -14 25 -14
24 -5 -24 c-4 -24 -4 -23 -6 3 -1 22 3 28 17 25 10 -2 18 -14 20 -28z m79 -1
c1 -13 0 -18 -3 -11 -3 6 -10 12 -15 12 -6 0 -7 -4 -4 -10 3 -5 1 -10 -4 -10
-12 0 -14 11 -5 35 9 23 29 13 31 -16z m2123 21 c0 -5 -7 -10 -15 -10 -8 0
-15 5 -15 10 0 6 7 10 15 10 8 0 15 -4 15 -10z m65 0 c-3 -5 -13 -10 -21 -10
-8 0 -14 5 -14 10 0 6 9 10 21 10 11 0 17 -4 14 -10z m65 0 c0 -5 -7 -10 -15
-10 -8 0 -15 5 -15 10 0 6 7 10 15 10 8 0 15 -4 15 -10z m70 0 c0 -5 -7 -10
-16 -10 -8 0 -12 5 -9 10 3 6 10 10 16 10 5 0 9 -4 9 -10z m70 0 c0 -5 -7 -10
-15 -10 -8 0 -15 5 -15 10 0 6 7 10 15 10 8 0 15 -4 15 -10z m60 0 c0 -5 -4
-10 -10 -10 -5 0 -10 5 -10 10 0 6 5 10 10 10 6 0 10 -4 10 -10z m-2767 -20
c3 -11 1 -20 -4 -20 -5 0 -9 9 -9 20 0 11 2 20 4 20 2 0 6 -9 9 -20z m-756
-96 c7 -35 8 -61 2 -64 -5 -4 2 -21 16 -40 13 -18 30 -49 36 -68 6 -18 17 -46
25 -60 8 -15 14 -32 14 -37 0 -19 88 -154 136 -211 26 -30 41 -54 33 -54 -19
0 -111 98 -153 165 -64 99 -130 272 -120 312 3 10 -2 32 -10 48 -19 36 -21 78
-3 73 6 -3 17 -31 24 -64z m1043 5 c0 -22 -5 -29 -20 -29 -28 0 -35 25 -13 48
23 24 33 19 33 -19z m430 11 c20 -37 -30 -123 -61 -104 -24 14 7 124 35 124 8
0 20 -9 26 -20z m1319 -22 c0 -31 -1 -31 -10 -10 -5 13 -7 28 -3 33 10 16 14
9 13 -23z m-1914 12 c3 -5 -2 -10 -12 -10 -15 0 -16 -2 -3 -10 13 -8 13 -10
-2 -10 -9 0 -20 5 -23 10 -8 13 3 30 20 30 8 0 17 -4 20 -10z m55 -11 c0 -11
-4 -17 -10 -14 -5 3 -10 13 -10 21 0 8 5 14 10 14 6 0 10 -9 10 -21z m30 -7
c0 -15 -2 -15 -10 -2 -13 20 -13 33 0 25 6 -3 10 -14 10 -23z m1789 15 c-2 -1
-12 -9 -21 -16 -15 -12 -18 -11 -18 3 0 10 8 16 22 16 12 0 19 -1 17 -3z m697
-24 c15 -16 23 -35 20 -46 -2 -10 5 -26 17 -37 23 -22 22 -24 -10 -34 -18 -6
-23 -3 -23 11 -1 17 -1 17 -11 1 -12 -21 -44 -24 -56 -5 -33 51 -31 96 5 125
22 17 30 15 58 -15z m-326 -18 c0 -16 -5 -22 -17 -21 -22 3 -28 23 -13 41 16
19 30 10 30 -20z m-200 15 c0 -5 -2 -10 -4 -10 -3 0 -8 5 -11 10 -3 6 -1 10 4
10 6 0 11 -4 11 -10z m121 -7 c-11 -4 -11 -7 0 -14 7 -4 10 -11 7 -14 -10 -10
-28 4 -28 21 0 8 8 14 18 13 12 0 13 -2 3 -6z m125 -30 c-11 -11 -19 6 -11 24
8 17 8 17 12 0 3 -10 2 -21 -1 -24z m400 10 c-10 -10 -19 5 -10 18 6 11 8 11
12 0 2 -7 1 -15 -2 -18z m84 12 c0 -8 -7 -15 -15 -15 -8 0 -15 7 -15 15 0 8 7
15 15 15 8 0 15 -7 15 -15z m70 5 c0 -5 -8 -10 -17 -10 -15 0 -16 2 -3 10 19
12 20 12 20 0z m-533 -22 c-3 -8 -6 -5 -6 6 -1 11 2 17 5 13 3 -3 4 -12 1 -19z
m63 -4 c0 -8 -4 -14 -10 -14 -5 0 -10 9 -10 21 0 11 5 17 10 14 6 -3 10 -13
10 -21z m83 20 c3 -3 3 -12 1 -19 -7 -17 -44 -7 -44 11 0 14 31 20 43 8z
m-319 -40 c13 -5 14 -9 4 -21 -9 -11 -9 -16 3 -24 11 -7 10 -9 -7 -9 -16 0
-21 6 -21 30 0 17 1 30 3 30 1 0 10 -3 18 -6z m596 -29 c0 -14 -4 -25 -9 -25
-4 0 -6 11 -3 25 2 14 6 25 8 25 2 0 4 -11 4 -25z m208 3 c2 -9 -4 -18 -13
-21 -11 -5 -15 0 -15 19 0 28 23 29 28 2z m-528 -12 c0 -19 -5 -24 -20 -23
-19 1 -27 26 -13 40 15 15 33 6 33 -17z m-200 -1 c0 -8 -9 -15 -20 -15 -11 0
-20 7 -20 15 0 8 9 15 20 15 11 0 20 -7 20 -15z m63 0 c7 -16 -8 -29 -23 -20
-15 9 -12 35 4 35 8 0 16 -7 19 -15z m204 -10 c2 -11 0 -14 -3 -7 -5 10 -9 10
-20 1 -11 -9 -14 -7 -14 11 0 28 34 24 37 -5z m201 7 c2 -7 -6 -12 -17 -12
-21 0 -27 11 -14 24 9 9 26 2 31 -12z m-788 -57 c0 -14 -6 -25 -13 -25 -7 0
-14 11 -15 25 -1 16 3 25 13 25 9 0 15 -10 15 -25z m58 2 c2 -10 -3 -17 -12
-17 -10 0 -16 9 -16 21 0 24 23 21 28 -4z m127 14 c3 -5 0 -13 -6 -16 -5 -4
-8 -13 -5 -21 3 -8 0 -11 -10 -7 -11 4 -12 9 -5 16 14 14 14 30 1 22 -5 -3
-10 -1 -10 4 0 13 27 14 35 2z m1016 -78 c-1 -69 -9 -135 -25 -213 -3 -14 -10
-26 -16 -28 -6 -2 -8 -8 -4 -13 3 -5 -1 -9 -9 -9 -25 0 -62 -24 -62 -40 0 -28
-42 -23 -62 6 -14 22 -18 47 -17 116 1 64 -3 88 -13 92 -21 8 -15 26 12 36 14
5 25 15 25 21 0 28 119 105 146 95 8 -3 14 1 14 11 0 9 3 14 6 10 3 -3 6 -41
5 -84z m-1071 71 c0 -3 -6 -12 -14 -20 -20 -19 -26 -18 -26 6 0 13 7 20 20 20
11 0 20 -3 20 -6z m380 -24 c0 -16 -4 -30 -10 -30 -5 0 -10 14 -10 30 0 17 5
30 10 30 6 0 10 -13 10 -30z m62 0 c3 -19 0 -30 -7 -30 -6 0 -11 10 -9 23 1
12 3 25 3 30 2 17 9 5 13 -23z m381 15 c-3 -9 -8 -14 -10 -11 -3 3 -2 9 2 15
9 16 15 13 8 -4z m-2483 -5 c0 -5 -7 -10 -15 -10 -8 0 -15 5 -15 10 0 6 7 10
15 10 8 0 15 -4 15 -10z m2414 -5 c-4 -9 0 -15 9 -15 50 0 62 -101 17 -140
-25 -22 -30 -23 -54 -14 -21 8 -21 88 -1 128 8 15 15 35 15 42 0 8 4 14 10 14
5 0 7 -7 4 -15z m-569 -5 c-3 -5 -10 -10 -16 -10 -5 0 -9 5 -9 10 0 6 7 10 16
10 8 0 12 -4 9 -10z m128 3 c-7 -2 -13 -9 -13 -14 0 -6 5 -7 10 -4 6 3 10 1
10 -4 0 -14 -27 -14 -35 -1 -9 14 3 30 23 29 11 0 12 -3 5 -6z m209 -18 c-5
-28 -27 -33 -36 -9 -8 21 1 34 23 34 14 0 17 -6 13 -25z m55 12 c0 -8 -6 -14
-14 -14 -7 0 -13 6 -13 14 0 7 6 13 13 13 8 0 14 -6 14 -13z m63 -2 c0 -8 -4
-15 -10 -15 -5 0 -10 7 -10 15 0 8 5 15 10 15 6 0 10 -7 10 -15z m260 -4 c0
-5 3 -17 7 -26 5 -15 3 -16 -15 -6 -25 13 -29 41 -7 41 8 0 15 -4 15 -9z
m-670 -51 c0 -5 -7 -7 -15 -4 -9 4 -15 0 -15 -10 0 -10 6 -13 15 -10 8 4 15 1
15 -5 0 -14 -37 -14 -45 -1 -11 18 3 40 25 40 11 0 20 -4 20 -10z m432 -22
c-8 -8 -9 -4 -5 13 4 13 8 18 11 10 2 -7 -1 -18 -6 -23z m-372 2 c0 -5 -2 -10
-4 -10 -2 0 -11 -2 -19 -5 -8 -4 -14 0 -14 10 0 8 9 15 19 15 10 0 18 -4 18
-10z m40 -2 c0 -9 4 -8 10 2 8 13 10 12 10 -3 0 -12 -6 -17 -17 -15 -18 3 -31
28 -14 28 6 0 11 -6 11 -12z m97 -4 c2 -7 -7 -11 -22 -11 -15 0 -25 5 -25 14
0 17 41 14 47 -3z m63 2 c0 -8 -7 -17 -16 -20 -23 -9 -24 -8 -24 14 0 13 7 20
20 20 11 0 20 -6 20 -14z m60 -3 c0 -21 -15 -23 -28 -3 -10 16 -8 18 8 17 11
-1 20 -7 20 -14z m-1335 -13 c-3 -5 -14 -10 -23 -9 -14 0 -13 2 3 9 27 11 27
11 20 0z m834 -32 c-1 -18 -2 -19 -6 -5 -2 9 -9 14 -15 11 -7 -4 -8 -2 -4 4
12 20 26 13 25 -10z m-124 -18 c-5 -8 -11 -8 -17 -2 -6 6 -7 16 -3 22 5 8 11
8 17 2 6 -6 7 -16 3 -22z m-766 -2 c0 -13 -3 -17 -6 -10 -7 18 -23 15 -24 -5
0 -11 -3 -13 -6 -5 -2 6 -9 10 -14 7 -5 -4 -6 1 -3 9 5 13 19 21 47 25 4 0 7
-9 6 -21z m827 7 c-8 -8 -16 -15 -19 -15 -2 0 -4 7 -4 15 0 8 9 15 19 15 17 0
18 -2 4 -15z m386 -10 c-2 -14 -6 -25 -7 -25 -1 0 -5 11 -7 25 -3 16 -1 25 7
25 8 0 10 -9 7 -25z m68 0 c0 -14 -4 -25 -10 -25 -11 0 -14 33 -3 43 11 11 13
8 13 -18z m-260 5 c0 -5 -7 -10 -16 -10 -8 0 -12 5 -9 10 3 6 10 10 16 10 5 0
9 -4 9 -10z m124 -29 c-9 -10 -26 18 -18 30 5 9 9 8 14 -7 4 -10 6 -21 4 -23z
m213 17 c-5 -29 -37 -33 -37 -5 0 18 2 19 10 7 8 -13 10 -12 10 3 0 9 4 17 10
17 5 0 8 -10 7 -22z m63 13 c0 -5 -7 -11 -15 -15 -9 -3 -15 0 -15 9 0 8 7 15
15 15 8 0 15 -4 15 -9z m50 -6 c0 -8 -4 -15 -10 -15 -5 0 -10 7 -10 15 0 8 5
15 10 15 6 0 10 -7 10 -15z m-2135 -25 c0 -16 -3 -30 -7 -30 -5 0 -8 14 -8 30
0 17 3 30 8 30 4 0 7 -13 7 -30z m1550 12 c-3 -3 -11 0 -18 7 -9 10 -8 11 6 5
10 -3 15 -9 12 -12z m-2025 -11 c0 -11 3 -26 6 -35 3 -9 2 -16 -4 -16 -5 0
-12 16 -14 35 -2 19 0 35 4 35 4 0 8 -9 8 -19z m315 -5 c0 -15 -4 -21 -9 -16
-5 5 -6 16 -3 24 9 22 12 20 12 -8z m675 -17 c0 -5 -7 -9 -16 -9 -8 0 -12 -4
-9 -10 3 -5 2 -10 -4 -10 -14 0 -19 23 -9 43 7 15 12 16 24 6 8 -6 14 -15 14
-20z m-1083 -11 c-3 -8 -6 -5 -6 6 -1 11 2 17 5 13 3 -3 4 -12 1 -19z m193 6
c0 -14 -3 -14 -15 -4 -12 10 -15 10 -15 0 0 -8 -3 -11 -6 -7 -9 9 5 27 22 27
8 0 14 -7 14 -16z m1717 -16 c-3 -7 -5 -2 -5 12 0 14 2 19 5 13 2 -7 2 -19 0
-25z m-1642 12 c3 -6 -4 -10 -17 -10 -18 0 -20 2 -8 10 19 12 18 12 25 0z m75
0 c0 -5 -8 -10 -17 -10 -15 0 -16 2 -3 10 19 12 20 12 20 0z m1950 -18 c0 -17
-4 -22 -14 -19 -8 3 -17 1 -20 -6 -2 -7 -5 2 -5 18 -1 24 3 31 19 31 14 0 20
-7 20 -24z m191 -19 c-9 -34 -27 -40 -34 -12 -7 28 -1 39 23 39 15 0 17 -5 11
-27z m46 5 c-3 -8 -6 -5 -6 6 -1 11 2 17 5 13 3 -3 4 -12 1 -19z m75 -10 c-8
-8 -9 -4 -5 13 4 13 8 18 11 10 2 -7 -1 -18 -6 -23z m-2260 -33 c3 -25 0 -35
-10 -35 -7 0 -12 6 -9 13 2 6 0 22 -4 35 -6 16 -5 22 5 22 8 0 15 -14 18 -35z
m78 19 c11 -12 10 -18 -5 -32 -17 -16 -17 -16 -11 2 3 10 1 25 -5 32 -7 8 -7
14 -1 14 5 0 15 -7 22 -16z m-212 -35 c2 -11 -5 -16 -28 -16 -28 0 -39 15 -23
31 12 12 48 2 51 -15z m71 -4 c3 -17 1 -18 -13 -6 -11 10 -16 10 -16 2 0 -7
-4 -10 -10 -6 -14 9 1 36 19 33 9 -2 17 -12 20 -23z m-435 -1 c3 -8 2 -12 -4
-9 -6 3 -10 10 -10 16 0 14 7 11 14 -7z m86 1 c0 -8 -4 -15 -10 -15 -5 0 -10
7 -10 15 0 8 5 15 10 15 6 0 10 -7 10 -15z m755 -55 c-10 -11 -21 -18 -23 -15
-3 3 3 12 14 20 27 20 30 18 9 -5z m106 6 c-9 -11 -8 -15 4 -20 9 -3 13 -11
10 -17 -5 -6 -12 -3 -22 10 -14 21 -10 41 9 41 7 0 7 -5 -1 -14z m1319 -1 c0
-8 -4 -15 -10 -15 -5 0 -10 7 -10 15 0 8 5 15 10 15 6 0 10 -7 10 -15z m76
-10 c4 -8 3 -22 0 -30 -4 -13 -10 -14 -26 -5 -16 9 -18 15 -10 30 13 24 28 26
36 5z m366 -10 c-2 -14 -6 -25 -8 -25 -2 0 -4 11 -4 25 0 14 4 25 9 25 4 0 6
-11 3 -25z m-1802 5 c0 -5 -4 -10 -10 -10 -5 0 -10 5 -10 10 0 6 5 10 10 10 6
0 10 -4 10 -10z m85 0 c3 -5 1 -10 -4 -10 -6 0 -11 5 -11 10 0 6 2 10 4 10 3
0 8 -4 11 -10z m3051 -16 c40 -19 72 -60 80 -103 l7 -31 -51 0 c-42 0 -52 3
-57 20 -10 33 -50 53 -89 46 -79 -15 -72 -68 12 -91 155 -43 192 -73 192 -155
0 -88 -67 -140 -179 -140 -70 0 -106 12 -143 47 -27 26 -55 89 -45 100 3 2 23
7 45 10 36 5 40 3 60 -30 15 -27 30 -38 55 -42 59 -11 107 11 107 50 0 31 -14
40 -90 60 -121 31 -160 67 -160 145 0 55 26 95 74 116 43 19 141 17 182 -2z
m1354 -2 c40 -20 80 -74 80 -108 0 -22 -4 -24 -49 -24 -44 0 -49 3 -55 25 -12
48 -113 58 -137 14 -18 -35 5 -51 123 -83 70 -20 114 -56 129 -105 10 -33 8
-45 -9 -85 -18 -39 -29 -50 -68 -68 -64 -28 -176 -22 -224 12 -31 22 -78 105
-66 117 3 3 24 7 48 10 40 4 44 3 56 -25 23 -54 116 -68 157 -23 29 33 11 59
-53 76 -31 9 -77 24 -102 33 -109 42 -122 179 -22 231 48 26 144 28 192 3z
m-710 -217 l0 -225 -50 0 -50 0 0 225 0 225 50 0 50 0 0 -225z m2290 185 l0
-40 -50 0 -50 0 0 40 0 40 50 0 50 0 0 -40z m380 0 l0 -40 -50 0 -50 0 0 40 0
40 50 0 50 0 0 -40z m-200 -25 c0 -54 0 -55 30 -55 28 0 30 -3 30 -35 0 -32
-2 -35 -30 -35 l-31 0 3 -97 3 -98 28 3 c25 3 27 0 27 -32 0 -38 -12 -46 -71
-46 -29 0 -47 7 -64 25 -24 23 -25 31 -25 135 0 103 -1 110 -20 110 -16 0 -20
7 -20 35 0 28 4 35 20 35 15 0 20 7 20 29 0 24 8 35 43 55 23 14 45 26 50 26
4 0 7 -25 7 -55z m-7115 -15 c3 -5 1 -10 -4 -10 -6 0 -10 -3 -10 -7 4 -22 -2
-43 -11 -43 -11 0 -14 53 -3 63 9 10 21 9 28 -3z m480 -9 c3 -5 1 -12 -5 -16
-5 -3 -10 0 -10 7 0 10 -3 9 -10 -2 -5 -8 -12 -11 -17 -7 -4 5 -1 12 7 17 19
12 27 12 35 1z m2302 -43 c-3 -8 -6 -5 -6 6 -1 11 2 17 5 13 3 -3 4 -12 1 -19z
m1610 6 c113 -54 126 -231 22 -305 -47 -33 -125 -37 -182 -10 -58 28 -87 79
-87 155 0 80 36 139 100 165 39 15 108 13 147 -5z m564 -7 c96 -64 113 -186
39 -271 -40 -45 -79 -59 -143 -54 -67 5 -113 36 -138 92 -44 97 -1 214 91 249
39 15 118 7 151 -16z m765 7 c44 -21 73 -70 81 -133 l6 -51 -112 0 c-123 0
-134 -7 -86 -55 31 -32 50 -31 80 1 21 22 31 26 61 21 47 -8 48 -10 29 -47
-23 -45 -70 -70 -131 -70 -97 0 -154 65 -154 175 0 73 22 121 69 152 41 28
107 30 157 7z m371 -4 c30 -18 70 -76 60 -86 -2 -3 -20 -7 -39 -10 -29 -5 -40
-1 -61 20 -31 31 -60 33 -87 6 -18 -18 -20 -31 -18 -87 3 -58 6 -68 30 -86 23
-18 31 -19 54 -8 14 6 28 20 31 31 6 21 48 26 85 12 17 -7 17 -9 0 -42 -25
-51 -74 -80 -134 -80 -109 0 -163 58 -163 175 0 82 25 132 78 159 45 22 124
21 164 -4z m702 11 c12 -8 13 -16 2 -51 -11 -37 -15 -41 -36 -36 -56 14 -75
-27 -75 -161 l0 -83 -45 0 -45 0 0 165 0 165 45 0 c29 0 45 -4 45 -12 0 -8 6
-6 17 5 19 18 69 22 92 8z m812 -14 c43 -28 69 -80 69 -134 l0 -43 -105 0
c-98 0 -105 -1 -105 -20 0 -25 34 -60 59 -60 20 0 51 25 51 41 0 10 43 12 77
3 21 -6 21 -8 9 -33 -27 -51 -62 -74 -120 -79 -97 -8 -158 40 -172 137 -13 83
30 176 91 201 40 17 111 11 146 -13z m363 -6 c32 -30 43 -61 25 -72 -24 -15
-68 -10 -89 11 -22 22 -51 26 -81 9 -31 -16 -8 -34 62 -49 75 -16 121 -46 132
-87 12 -40 -7 -80 -53 -111 -30 -20 -44 -23 -102 -20 -73 4 -111 24 -138 72
-13 24 -13 28 0 36 27 17 68 11 94 -15 27 -27 55 -31 87 -15 32 18 22 38 -23
50 -124 31 -158 57 -158 118 0 74 46 104 152 99 54 -2 72 -7 92 -26z m-1664
-98 c0 -94 3 -120 17 -135 21 -24 48 -23 73 2 18 18 20 33 20 135 l0 115 50 0
50 0 0 -165 0 -165 -45 0 c-33 0 -45 4 -45 15 0 12 -6 11 -32 -5 -45 -28 -110
-26 -143 3 -34 29 -44 78 -45 210 l0 107 50 0 50 0 0 -117z m630 -48 l0 -165
-50 0 -50 0 0 165 0 165 50 0 50 0 0 -165z m380 0 l0 -165 -50 0 -50 0 0 165
0 165 50 0 50 0 0 -165z m-7155 -213 c-3 -3 -11 0 -18 7 -9 10 -8 11 6 5 10
-3 15 -9 12 -12z m-270 -2 c3 -5 1 -10 -4 -10 -6 0 -11 5 -11 10 0 6 2 10 4
10 3 0 8 -4 11 -10z m870 1 c-3 -5 2 -17 11 -25 8 -9 12 -16 8 -16 -5 0 -3 -5
3 -11 9 -9 6 -16 -10 -29 -21 -17 -52 -16 -41 1 3 5 0 9 -5 9 -6 0 -11 -7 -11
-16 0 -8 -5 -12 -10 -9 -6 4 -8 11 -5 16 4 5 1 9 -4 9 -6 0 -11 -5 -11 -12 0
-8 -3 -9 -11 -1 -7 7 -2 19 18 40 33 35 83 67 68 44z m-494 -128 c-10 -17 -10
-17 -11 0 0 12 -4 16 -12 11 -9 -5 -8 -2 1 10 19 22 37 5 22 -21z m-150 5 c11
-21 11 -22 -4 -9 -10 7 -17 17 -17 22 0 15 9 10 21 -13z m123 -16 c2 -4 0 -14
-6 -22 -8 -12 -9 -12 -5 2 3 9 1 19 -6 22 -9 3 -9 5 0 5 6 1 14 -3 17 -7z m73
2 c-3 -3 -12 -4 -19 -1 -8 3 -5 6 6 6 11 1 17 -2 13 -5z m103 -9 c0 -8 6 -12
14 -9 8 3 17 0 22 -7 5 -8 3 -10 -6 -4 -10 6 -12 4 -7 -8 8 -22 -13 -34 -25
-13 -5 9 -17 16 -26 16 -16 1 -16 1 1 11 9 6 15 14 12 20 -4 5 -1 9 4 9 6 0
11 -7 11 -15z m-50 -11 c0 -2 -7 -9 -15 -18 -20 -19 -50 -11 -32 9 10 10 47
17 47 9z m-92 -13 c11 -7 11 -9 -1 -14 -16 -6 -27 0 -27 15 0 10 11 10 28 -1z
m429 -14 c-6 9 -3 11 7 7 9 -3 16 -10 16 -16 0 -5 3 -7 8 -5 9 6 33 -19 25
-27 -4 -3 1 -6 11 -6 13 0 14 -3 5 -13 -6 -7 -27 -12 -45 -11 -23 1 -34 -3
-34 -12 0 -16 -16 -19 -25 -5 -3 5 7 19 22 32 16 12 20 19 10 16 -11 -4 -21 0
-29 13 -13 21 -58 28 -58 9 0 -6 7 -9 15 -5 10 3 15 -1 15 -13 0 -11 5 -21 11
-23 13 -4 -16 -38 -32 -38 -8 0 -10 7 -13 50 -1 8 -4 20 -8 26 -10 15 12 32
35 29 9 -2 17 1 17 6 0 5 12 1 27 -8 15 -10 24 -12 20 -6z m-533 -15 c2 -4
-11 -8 -30 -9 -18 0 -31 3 -28 8 7 11 51 12 58 1z m310 -19 c-1 -13 2 -23 7
-23 5 0 9 6 9 14 0 18 52 15 58 -2 2 -8 9 -9 22 -2 14 8 19 5 23 -11 4 -14 2
-19 -8 -15 -7 2 -16 -2 -19 -10 -7 -18 -26 -19 -26 -1 0 9 -10 12 -30 9 -16
-2 -30 -8 -30 -13 0 -5 8 -6 18 -2 9 3 14 3 11 -1 -10 -11 -59 -18 -59 -8 0 4
5 13 11 19 7 7 2 10 -20 7 -39 -5 -46 7 -21 39 26 32 58 32 54 0z m-202 -26
c4 -19 0 -23 -16 -22 -12 1 -22 9 -24 18 -2 10 -8 14 -14 11 -7 -4 -8 -2 -4 4
4 6 13 9 21 5 8 -3 15 0 15 7 0 19 17 2 22 -23z m88 24 c0 -5 -8 -15 -17 -22
-15 -12 -16 -12 -10 3 3 9 1 19 -6 22 -7 2 -2 5 11 5 12 1 22 -3 22 -8z m23
-19 c-2 -10 -11 -19 -19 -19 -11 0 -11 4 3 19 9 10 17 18 19 18 1 0 0 -8 -3
-18z m-123 -46 c0 -2 -9 -6 -20 -9 -11 -3 -18 -1 -14 4 5 9 34 13 34 5z m365
-16 c3 -5 1 -10 -4 -10 -6 0 -11 5 -11 10 0 6 2 10 4 10 3 0 8 -4 11 -10z
m-305 -138 c0 -4 -9 -8 -19 -8 -11 0 -17 4 -15 8 3 4 12 8 20 8 8 0 14 -4 14
-8z m-10 -26 c0 -2 -7 -7 -16 -10 -8 -3 -12 -2 -9 4 6 10 25 14 25 6z m-45
-44 c2 -27 -12 -39 -28 -23 -8 8 -8 11 2 11 7 0 9 5 6 10 -4 6 -12 7 -18 3 -7
-4 -6 1 2 10 18 22 34 17 36 -11z m-55 14 c0 -2 -7 -7 -16 -10 -8 -3 -12 -2
-9 4 6 10 25 14 25 6z m155 -18 c-3 -30 -3 -30 -15 -23 -7 4 -7 13 0 26 14 25
18 24 15 -3z m-77 -50 c6 -19 1 -39 -8 -33 -6 4 -16 2 -23 -3 -7 -5 -21 -6
-32 -2 -19 7 -19 7 3 14 12 4 20 11 17 16 -3 5 -13 7 -23 4 -11 -4 -13 -3 -5
3 15 11 67 11 71 1z m10 -73 c11 -10 8 -14 -17 -23 -17 -6 -31 -14 -31 -17 0
-3 6 -3 13 1 7 4 9 3 4 -2 -5 -5 -21 -10 -35 -10 -15 -1 -37 -2 -50 -3 -13 0
-20 -5 -17 -11 3 -5 0 -7 -9 -4 -8 3 -17 12 -20 19 -3 9 0 12 10 8 13 -5 19 8
14 32 -1 6 2 6 7 2 4 -5 8 -14 8 -20 0 -13 52 -20 60 -7 3 4 -6 11 -19 14 -18
4 -23 11 -19 27 5 18 11 19 47 14 22 -4 47 -13 54 -20z m-45 -71 c3 -3 2 -17
-4 -31 -5 -15 -5 -22 0 -18 15 8 22 -12 8 -21 -6 -5 -21 -9 -32 -8 -11 1 -30
2 -42 3 -13 0 -23 5 -23 10 0 17 32 42 46 37 7 -3 16 -1 19 4 4 6 0 10 -7 10
-9 0 -9 3 2 10 18 11 24 12 33 4z m-186 -15 c9 -8 10 -14 0 -24 -10 -11 -15
-10 -31 3 -18 16 -18 16 -8 -4 6 -12 8 -24 5 -28 -10 -10 -20 -7 -20 7 0 6 -2
17 -3 22 -7 31 30 46 57 24z m-67 -30 c0 -14 -17 -10 -23 5 -4 10 -1 13 9 9 7
-3 14 -9 14 -14z m118 6 c-2 -5 -7 -9 -11 -7 -5 1 -6 -2 -3 -7 3 -5 -1 -14 -9
-21 -8 -7 -12 -17 -8 -24 3 -6 2 -8 -2 -3 -14 12 -13 46 1 40 9 -3 11 2 7 17
-5 17 -2 21 11 19 9 -2 16 -8 14 -14z m42 -5 c0 -5 -2 -10 -4 -10 -3 0 -8 5
-11 10 -3 6 -1 10 4 10 6 0 11 -4 11 -10z m-420 -190 c0 -113 -1 -120 -20
-120 -19 0 -20 7 -20 120 0 113 1 120 20 120 19 0 20 -7 20 -120z m190 1 l0
-119 -52 0 c-63 -1 -82 8 -98 47 -28 68 12 137 75 129 34 -4 35 -3 35 29 0 26
4 33 20 33 19 0 20 -7 20 -119z m2720 -1 c0 -100 -2 -120 -15 -120 -12 0 -15
20 -15 120 0 100 3 120 15 120 13 0 15 -20 15 -120z m730 86 c0 -29 3 -33 20
-29 64 17 112 -47 91 -119 -14 -47 -33 -57 -99 -56 l-52 1 0 119 c0 111 1 118
20 118 16 0 20 -7 20 -34z m180 19 c0 -8 -9 -15 -20 -15 -11 0 -20 7 -20 15 0
8 9 15 20 15 11 0 20 -7 20 -15z m70 -105 c0 -113 -1 -120 -20 -120 -19 0 -20
7 -20 120 0 113 1 120 20 120 19 0 20 -7 20 -120z m70 105 c0 -8 -7 -15 -15
-15 -8 0 -15 7 -15 15 0 8 7 15 15 15 8 0 15 -7 15 -15z m80 -15 c0 -20 5 -30
15 -30 8 0 15 -5 15 -10 0 -6 -7 -13 -15 -16 -11 -5 -15 -22 -15 -64 0 -42 4
-59 15 -64 24 -9 17 -26 -10 -26 -32 0 -45 26 -45 94 0 31 -4 56 -10 56 -5 0
-10 7 -10 15 0 8 5 15 10 15 6 0 10 8 10 18 0 19 18 42 32 42 4 0 8 -13 8 -30z
m84 15 c4 -10 -1 -15 -14 -15 -11 0 -20 7 -20 15 0 8 6 15 14 15 8 0 16 -7 20
-15z m506 -18 c0 -32 2 -33 30 -29 65 9 108 -60 80 -129 -16 -39 -35 -48 -98
-47 l-52 0 0 119 c0 112 1 119 20 119 16 0 20 -7 20 -33z m410 18 c0 -8 -9
-15 -20 -15 -11 0 -20 -7 -20 -15 0 -8 7 -15 15 -15 8 0 15 -7 15 -15 0 -8 -7
-15 -15 -15 -12 0 -15 -15 -15 -75 0 -68 -2 -75 -20 -75 -18 0 -20 7 -20 75 0
43 -4 75 -10 75 -5 0 -10 7 -10 15 0 8 5 15 10 15 6 0 10 8 10 18 0 26 20 42
52 42 18 0 28 -5 28 -15z m600 -19 c0 -34 0 -34 38 -29 58 8 72 -12 72 -103 0
-59 -3 -74 -15 -74 -12 0 -15 13 -15 59 0 75 -6 91 -36 91 -31 0 -44 -27 -44
-94 0 -43 -3 -56 -15 -56 -12 0 -15 20 -15 120 0 100 3 120 15 120 10 0 15
-10 15 -34z m521 22 c0 -7 0 -34 -1 -60 -1 -27 1 -48 5 -48 3 0 18 14 32 30
16 19 34 30 51 30 l26 0 -33 -34 -34 -35 32 -50 c36 -60 37 -61 13 -61 -11 0
-28 16 -41 41 -23 41 -45 47 -47 13 -2 -46 -5 -54 -19 -54 -12 0 -15 20 -15
120 0 100 3 120 15 120 8 0 15 -6 16 -12z m1229 -108 c0 -100 -2 -120 -15
-120 -12 0 -15 20 -15 120 0 100 3 120 15 120 13 0 15 -20 15 -120z m260 105
c0 -8 -9 -15 -20 -15 -11 0 -20 7 -20 15 0 8 9 15 20 15 11 0 20 -7 20 -15z
m76 -11 c-3 -7 1 -20 9 -28 18 -18 19 -33 3 -39 -21 -6 -15 -101 7 -123 18
-19 18 -19 -10 -22 -37 -5 -45 10 -45 86 0 34 -4 62 -10 62 -5 0 -10 7 -10 15
0 8 5 15 10 15 6 0 10 11 10 24 0 24 17 38 33 29 5 -3 6 -11 3 -19z m180 0
c-3 -7 1 -20 9 -28 18 -17 19 -33 4 -38 -19 -6 -12 -106 8 -126 16 -16 15 -17
-12 -20 -37 -5 -45 10 -45 86 0 34 -4 62 -10 62 -5 0 -10 7 -10 15 0 8 5 15
10 15 6 0 10 11 10 24 0 24 17 38 33 29 5 -3 6 -11 3 -19z m84 -8 c0 -34 1
-35 35 -29 58 9 75 -14 75 -104 0 -66 -2 -73 -20 -73 -18 0 -20 7 -20 75 0 72
-1 75 -23 75 -37 0 -47 -19 -47 -87 0 -56 -2 -63 -20 -63 -19 0 -20 7 -20 120
0 113 1 120 20 120 16 0 20 -7 20 -34z m646 -18 c-3 -29 -6 -70 -6 -90 0 -27
-4 -38 -15 -38 -11 0 -15 12 -15 44 0 24 -3 64 -6 90 -7 45 -6 46 21 46 27 0
27 0 21 -52z m-8282 -27 c10 -11 21 -34 25 -53 l8 -33 -69 3 c-71 4 -74 2 -58
-29 13 -23 47 -25 71 -3 10 9 26 14 36 12 16 -3 15 -7 -9 -31 -33 -33 -84 -36
-119 -8 -31 25 -34 108 -5 140 26 28 96 29 120 2z m180 6 c17 -13 20 -29 17
-114 -1 -46 -4 -53 -21 -53 -18 0 -20 7 -20 70 0 56 -3 72 -16 77 -34 13 -49
-11 -52 -81 -3 -58 -5 -66 -22 -66 -18 0 -20 7 -20 89 l0 89 58 1 c33 0 66 -5
76 -12z m2446 1 c0 -9 3 -9 12 0 15 15 53 16 79 2 16 -9 19 -22 19 -90 0 -63
-3 -80 -15 -80 -11 0 -15 17 -17 73 -3 70 -4 72 -30 75 -34 4 -48 -25 -48 -99
0 -37 -4 -49 -15 -49 -12 0 -15 17 -15 90 0 73 3 90 15 90 8 0 15 -5 15 -12z
m270 2 c16 -8 40 -58 40 -81 0 -5 -29 -9 -65 -9 -47 0 -65 -4 -65 -13 0 -35
57 -50 80 -22 16 19 40 19 40 1 0 -21 -40 -46 -73 -46 -42 0 -64 16 -77 55
-13 41 1 99 28 115 22 12 68 13 92 0z m158 -2 c-3 -7 -15 -15 -29 -18 -22 -5
-24 -11 -27 -78 -3 -64 -5 -72 -22 -72 -18 0 -20 7 -20 90 l0 90 51 0 c35 0
49 -4 47 -12z m140 0 c5 -7 11 -47 14 -88 l3 -76 -59 -1 c-70 -2 -96 9 -96 42
0 29 29 50 83 59 29 5 37 11 35 24 -4 23 -66 29 -74 8 -7 -19 -34 -22 -34 -4
0 6 7 20 17 30 19 21 95 25 111 6z m272 -78 c0 -83 -1 -90 -20 -90 -19 0 -20
7 -20 90 0 83 1 90 20 90 19 0 20 -7 20 -90z m140 0 c0 -73 -3 -90 -15 -90
-12 0 -15 17 -15 90 0 73 3 90 15 90 12 0 15 -17 15 -90z m163 73 c3 -10 4
-49 2 -88 -2 -55 -6 -71 -19 -73 -14 -3 -16 9 -16 87 0 72 3 91 14 91 8 0 17
-8 19 -17z m166 -9 c12 -15 21 -37 21 -50 0 -23 -4 -24 -60 -24 -43 0 -60 -4
-60 -13 0 -34 65 -52 76 -22 7 17 44 21 44 5 0 -23 -41 -50 -75 -50 -51 0 -85
36 -85 90 0 81 92 123 139 64z m162 16 c10 -6 19 -17 19 -25 0 -17 -26 -20
-35 -5 -3 6 -19 10 -36 10 -44 0 -37 -27 11 -40 43 -11 70 -33 70 -56 0 -26
-39 -54 -75 -54 -34 0 -75 27 -75 50 0 16 37 12 44 -5 8 -23 66 -20 66 3 0 13
-13 23 -47 33 -42 12 -48 18 -51 44 -6 47 56 73 109 45z m434 4 c18 -7 45 -54
45 -79 0 -12 -13 -15 -65 -15 -36 0 -65 -3 -65 -6 0 -39 61 -60 85 -28 6 9 19
15 29 13 17 -4 16 -6 -4 -31 -16 -21 -30 -28 -56 -28 -49 0 -72 15 -83 55 -23
83 39 147 114 119z m292 -16 c32 -30 32 -102 1 -135 -28 -30 -83 -31 -115 -1
-32 30 -32 102 -1 135 28 30 83 31 115 1z m143 7 c0 -9 -10 -15 -24 -15 -28 0
-36 -21 -36 -97 0 -40 -4 -53 -15 -53 -12 0 -15 17 -15 89 l0 88 45 1 c33 1
45 -3 45 -13z m125 9 c18 -7 45 -54 45 -79 0 -12 -13 -15 -65 -15 -36 0 -65
-3 -65 -6 0 -39 61 -60 85 -28 6 9 19 15 29 13 17 -4 16 -6 -4 -31 -16 -21
-30 -28 -56 -28 -49 0 -72 15 -83 55 -23 83 39 147 114 119z m467 -6 c12 -10
17 -34 20 -90 3 -69 1 -78 -14 -78 -10 0 -18 5 -18 12 0 9 -3 9 -12 0 -7 -7
-28 -12 -48 -12 -41 0 -60 14 -60 45 0 30 27 51 74 58 46 7 48 9 40 31 -8 21
-62 22 -70 1 -4 -8 -15 -15 -25 -15 -17 0 -18 3 -8 23 7 12 17 25 23 29 18 12
81 9 98 -4z m178 -8 c11 -11 20 -24 20 -30 0 -15 -26 -12 -40 5 -7 8 -23 15
-36 15 -54 0 -55 -112 -2 -118 19 -2 31 3 40 17 15 24 38 28 38 6 0 -27 -38
-55 -74 -55 -45 0 -76 37 -76 90 0 77 80 120 130 70z m320 10 c16 -8 40 -58
40 -81 0 -5 -29 -9 -65 -9 -47 0 -65 -4 -65 -13 0 -35 57 -50 80 -22 16 19 40
19 40 1 0 -21 -40 -46 -73 -46 -42 0 -64 16 -77 55 -13 41 1 99 28 115 22 12
68 13 92 0z m160 -5 c0 -7 -12 -15 -27 -17 -27 -3 -28 -5 -31 -75 -3 -65 -5
-73 -22 -73 -18 0 -20 7 -20 89 l0 89 50 0 c36 1 50 -3 50 -13z m121 5 c10 -6
19 -17 19 -25 0 -17 -26 -20 -35 -5 -3 6 -19 10 -36 10 -44 0 -37 -27 11 -40
43 -11 70 -33 70 -56 0 -26 -39 -54 -75 -54 -34 0 -75 27 -75 50 0 16 37 12
44 -5 8 -23 66 -20 66 3 0 13 -13 23 -47 33 -42 12 -48 18 -51 44 -6 47 56 73
109 45z m254 4 c18 -7 45 -54 45 -79 0 -12 -13 -15 -65 -15 -36 0 -65 -3 -65
-6 0 -39 61 -60 85 -28 6 9 19 15 29 13 17 -4 16 -6 -4 -31 -16 -21 -30 -28
-56 -28 -49 0 -72 15 -83 55 -23 83 39 147 114 119z m113 -19 c6 -14 15 -25
20 -25 5 0 15 11 22 25 7 14 22 25 32 25 24 0 23 -7 -7 -46 -14 -18 -25 -36
-25 -39 0 -4 14 -26 30 -51 27 -38 28 -44 13 -44 -10 0 -30 14 -44 32 l-27 32
-16 -32 c-10 -20 -24 -32 -36 -32 -26 0 -25 8 10 54 l29 39 -30 43 -30 44 24
0 c16 0 28 -8 35 -25z m252 -2 c27 -34 26 -92 -2 -128 -18 -23 -26 -26 -60
-22 l-38 5 0 -39 c0 -28 -4 -39 -15 -39 -13 0 -15 20 -15 123 l0 123 55 2 c47
1 57 -2 75 -25z m250 2 c52 -55 15 -155 -57 -155 -49 0 -83 37 -83 90 0 80 87
121 140 65z m90 -65 c0 -83 -1 -90 -20 -90 -19 0 -20 7 -20 90 0 83 1 90 20
90 19 0 20 -7 20 -90z m595 84 c18 -7 45 -54 45 -79 0 -12 -13 -15 -65 -15
-36 0 -65 -3 -65 -6 0 -39 61 -60 85 -28 6 9 19 15 29 13 17 -4 16 -6 -4 -31
-16 -21 -30 -28 -56 -28 -49 0 -72 15 -83 55 -23 83 39 147 114 119z m193 -6
c9 -8 16 -8 24 0 17 17 63 15 78 -3 6 -8 14 -48 16 -90 3 -69 2 -75 -16 -75
-17 0 -19 8 -22 73 -3 66 -5 72 -26 75 -28 4 -34 -12 -36 -89 -1 -49 -4 -59
-18 -59 -14 0 -18 12 -20 72 -3 63 -6 73 -22 76 -30 6 -46 -26 -46 -90 0 -45
-3 -58 -15 -58 -12 0 -15 16 -15 88 l0 89 52 1 c29 0 58 -4 66 -10z m202 -153
c0 -8 -9 -15 -20 -15 -11 0 -20 7 -20 15 0 8 9 15 20 15 11 0 20 -7 20 -15z
m-7653 -50 c8 -8 18 -13 23 -10 5 3 7 -8 5 -25 -4 -26 -1 -30 20 -30 14 0 28
0 32 -1 4 0 9 4 11 9 2 6 -11 9 -27 8 -24 -2 -28 1 -19 11 8 10 14 10 23 3 8
-7 15 -7 19 -1 3 5 15 7 26 4 16 -4 18 -8 9 -20 -7 -8 -8 -13 -3 -12 19 3 34
-1 34 -11 0 -5 -13 -7 -29 -5 -36 4 -73 -4 -66 -15 3 -4 -2 -11 -11 -14 -8 -3
-12 -2 -9 4 8 13 -38 30 -64 23 -12 -3 -21 -1 -21 6 0 6 5 11 11 11 5 0 8 4 5
9 -4 5 0 12 6 14 10 4 9 8 -2 17 -12 9 -13 12 -1 17 11 5 11 7 0 14 -11 7 -11
9 -1 9 7 0 20 -7 29 -15z m263 -5 c0 -5 -5 -10 -11 -10 -5 0 -7 5 -4 10 3 6 8
10 11 10 2 0 4 -4 4 -10z m976 -11 c33 -20 59 -75 48 -102 -2 -7 -10 -72 -18
-146 -13 -128 -15 -135 -52 -189 -47 -67 -91 -97 -125 -83 -65 25 -104 93 -94
166 2 17 6 57 9 90 14 134 18 150 53 203 56 82 113 102 179 61z m-699 -32 c43
-10 88 -120 84 -206 -2 -59 -29 -131 -48 -131 -7 0 -12 -3 -11 -7 3 -11 -35
-73 -44 -73 -4 0 -8 -7 -8 -15 0 -8 -4 -15 -9 -15 -5 0 -11 -13 -14 -30 -5
-25 -11 -30 -34 -29 -27 0 -27 1 -5 9 12 5 22 12 22 15 0 4 -5 3 -10 0 -6 -3
-13 1 -16 9 -7 19 -34 21 -34 4 0 -7 -5 -5 -11 5 -7 11 -17 16 -29 12 -11 -3
-20 0 -24 10 -3 9 -18 15 -35 15 -20 0 -30 6 -34 20 -3 10 0 22 7 25 8 3 7 7
-3 11 -11 5 -11 8 0 15 10 6 11 11 3 17 -12 8 -14 52 -2 52 5 0 1 11 -7 24
-11 16 -13 26 -6 31 6 3 11 19 11 36 0 16 4 29 8 29 4 0 9 11 10 24 2 27 42
76 61 76 7 0 10 4 7 9 -3 5 8 14 24 20 17 5 30 15 30 20 0 6 11 11 25 11 14 0
25 5 25 11 0 7 10 9 28 5 15 -4 33 -8 39 -9z m-627 -37 c0 -5 -7 -7 -15 -4 -8
4 -15 8 -15 10 0 2 7 4 15 4 8 0 15 -4 15 -10z m1055 -11 c23 -24 24 -58 7
-194 -20 -159 -37 -193 -111 -220 -30 -10 -44 -10 -74 0 -44 15 -67 32 -67 51
0 8 -5 14 -11 14 -6 0 -9 6 -6 14 3 7 2 17 -3 22 -8 9 -17 45 -25 108 -8 64
48 134 163 202 49 29 103 30 127 3z m-1030 -9 c3 -5 1 -10 -4 -10 -6 0 -11 5
-11 10 0 6 2 10 4 10 3 0 8 -4 11 -10z m170 0 c3 -6 -1 -7 -9 -4 -18 7 -21 14
-7 14 6 0 13 -4 16 -10z m75 6 c0 -2 3 -13 7 -23 7 -17 6 -17 -12 0 -16 17
-19 17 -27 3 -12 -22 -24 -20 -24 4 0 15 7 20 28 20 15 0 28 -2 28 -4z m-206
-41 c-3 -6 -14 -11 -24 -10 -29 2 -34 12 -11 20 12 3 21 12 21 18 0 8 4 7 9
-2 5 -8 7 -19 5 -26z m232 -63 c9 -8 12 -22 8 -34 -3 -11 -7 -27 -8 -35 -1 -8
-8 -18 -15 -23 -8 -4 -10 -13 -7 -19 4 -6 0 -11 -8 -11 -9 0 -16 5 -16 10 0 7
-7 7 -20 0 -16 -9 -22 -8 -26 5 -3 8 -13 15 -21 15 -11 0 -13 5 -8 18 5 9 8
25 9 34 0 23 25 32 32 13 4 -8 13 -15 22 -15 8 0 12 3 9 7 -4 3 1 12 11 19 15
12 13 13 -18 14 -29 0 -32 2 -17 11 9 5 22 7 29 3 7 -5 9 -2 5 9 -3 9 -1 18 6
20 7 2 14 -3 16 -11 2 -9 10 -22 17 -30z m-226 32 c0 -8 -19 -13 -24 -6 -3 5
1 9 9 9 8 0 15 -2 15 -3z m-235 -14 c-3 -5 -10 -10 -16 -10 -5 0 -9 5 -9 10 0
6 7 10 16 10 8 0 12 -4 9 -10z m265 -14 c0 -8 -51 -13 -56 -5 -3 5 9 9 25 9
17 0 31 -2 31 -4z m40 -38 c0 -10 6 -18 13 -19 6 0 -3 -5 -21 -10 -18 -5 -30
-14 -27 -18 7 -12 -24 -23 -38 -14 -6 4 -8 0 -4 -10 8 -22 -7 -22 -41 0 -37
24 -42 34 -26 50 8 8 12 19 9 24 -4 5 -1 9 4 9 6 0 11 -6 11 -12 0 -10 2 -10
8 -1 7 11 42 18 90 18 14 0 22 -6 22 -17z m17 -84 c-3 -3 -12 -4 -19 -1 -8 3
-5 6 6 6 11 1 17 -2 13 -5z m119 -26 c4 -5 0 -8 -9 -8 -9 0 -19 -5 -23 -12 -4
-6 -3 -8 4 -4 6 3 13 2 16 -3 10 -15 -54 -19 -69 -4 -16 15 -29 18 -20 3 3 -5
2 -10 -3 -10 -6 0 -9 10 -8 23 1 20 6 22 53 22 28 0 55 -3 59 -7z m217 -205
c-7 -2 -21 -2 -30 0 -10 3 -4 5 12 5 17 0 24 -2 18 -5z m1103 -39 c4 -15 -3
-58 -16 -105 -13 -44 -20 -82 -17 -85 3 -3 22 19 43 50 23 35 43 55 51 52 8
-3 15 4 19 19 10 40 31 38 36 -3 5 -41 -14 -104 -42 -140 -22 -27 -27 -62 -9
-62 23 0 -10 -121 -81 -300 -23 -58 -44 -114 -47 -125 -3 -11 -20 -54 -38 -95
-99 -221 -120 -271 -142 -335 -13 -38 -33 -106 -44 -150 -38 -150 -144 -377
-222 -478 -31 -41 -101 -82 -119 -71 -7 4 -8 26 -4 60 3 29 3 55 -2 58 -4 2
-35 -20 -67 -50 -113 -102 -125 -107 -225 -109 -56 0 -94 -5 -102 -13 -14 -14
-87 -16 -108 -2 -12 8 -9 10 13 10 23 0 26 2 15 14 -7 8 -14 10 -16 6 -2 -5
-13 -5 -25 -1 -21 8 -67 -2 -67 -14 0 -4 5 -3 10 0 6 3 10 -1 10 -10 0 -10 -6
-15 -17 -13 -13 3 -17 12 -16 31 1 21 -3 27 -18 27 -10 0 -19 5 -19 11 0 5 4
8 8 5 4 -2 14 0 22 6 13 8 13 9 0 5 -9 -2 -31 3 -50 12 -29 14 -35 21 -33 45
3 32 21 59 34 50 5 -3 9 2 9 10 0 9 6 16 13 16 7 0 12 11 11 28 -2 45 7 62 32
62 l23 0 -23 25 c-13 14 -29 25 -36 25 -10 0 -10 3 0 15 7 9 8 15 2 15 -5 0
-8 10 -4 22 4 17 2 20 -11 15 -10 -4 -17 -3 -17 2 0 11 49 21 55 11 2 -4 18
-5 34 -2 17 2 28 9 25 14 -4 6 -20 7 -37 4 -29 -6 -30 -5 -12 8 11 9 16 16 11
16 -5 0 -17 -7 -27 -16 -11 -10 -25 -13 -40 -9 -17 6 -19 9 -8 16 10 6 7 9
-11 9 -31 0 -61 19 -42 27 22 9 13 22 -12 17 -14 -2 -28 0 -31 6 -6 10 7 14
32 11 8 -1 10 5 7 14 -8 20 29 20 50 0 19 -19 24 -19 22 3 0 9 6 18 14 18 8 1
19 2 23 3 4 0 3 11 -4 22 -8 16 -8 23 0 29 15 9 4 38 -19 50 -11 6 -16 20 -15
40 2 31 -3 34 -50 31 -18 -1 -18 0 -3 11 15 11 15 14 -3 40 l-20 28 23 10 c22
10 22 10 -5 7 -15 -3 -30 0 -33 5 -4 5 13 8 38 6 36 -2 44 -7 46 -25 2 -13 0
-23 -5 -23 -5 0 -10 -11 -11 -24 -2 -24 1 -25 77 -28 70 -3 77 -1 73 15 -2 9
1 17 8 17 7 0 2 11 -11 25 -30 31 -49 32 -49 3 0 -28 -13 -15 -16 16 -2 23 0
24 32 19 l34 -6 -16 32 c-8 17 -12 36 -8 42 4 8 3 9 -5 5 -6 -4 -14 0 -18 11
-3 10 -13 26 -21 35 -13 16 -12 18 12 27 14 6 26 17 26 26 0 19 24 19 44 0 17
-18 57 -20 53 -3 -1 7 4 13 11 14 6 1 15 2 18 3 4 0 1 7 -5 15 -10 12 -7 15
16 19 23 3 21 4 -10 6 -34 1 -37 3 -27 21 6 11 17 20 24 20 14 0 15 9 17 83 1
35 5 47 16 47 9 0 13 6 10 14 -4 9 3 17 16 21 14 4 17 8 9 12 -6 2 -9 9 -6 14
3 6 0 17 -8 26 -9 12 -9 15 0 9 6 -4 12 -2 12 3 0 6 -6 11 -14 11 -23 0 -28
17 -10 34 8 9 12 21 9 27 -4 5 1 17 11 24 11 8 15 15 11 15 -4 0 -3 9 3 20 11
20 13 19 51 -17 21 -20 39 -41 39 -46 0 -14 50 -70 74 -84 11 -7 16 -12 9 -13
-6 0 -16 -14 -22 -30 -8 -24 -7 -32 3 -36 11 -4 11 -13 3 -40 -9 -31 -8 -37
11 -57 20 -20 23 -20 38 -5 23 22 29 81 10 97 -10 9 -13 22 -9 43 3 17 1 33
-5 37 -14 9 96 81 114 74 8 -3 14 -11 14 -19 0 -8 5 -14 10 -14 6 0 10 -7 10
-15 0 -8 4 -15 10 -15 6 0 6 -9 0 -24 -5 -13 -7 -26 -4 -28 11 -12 10 -67 -2
-83 -10 -13 -11 -22 -3 -31 26 -32 69 28 69 98 1 39 7 50 69 116 l68 73 25
-58 c15 -32 33 -75 42 -96 13 -33 18 -37 35 -28 27 15 55 57 92 135 39 83 59
87 59 10 l0 -55 30 33 c17 18 39 57 50 86 11 30 27 60 35 69 17 17 19 32 5 53
-8 13 -9 13 -14 0 -2 -8 -12 -39 -21 -67 -9 -29 -25 -63 -35 -75 -28 -35 -43
-11 -50 79 l-5 76 -14 -39 c-13 -37 -23 -63 -66 -161 -9 -23 -28 -52 -41 -64
l-23 -22 -11 27 c-5 15 -10 30 -10 33 0 3 -16 41 -36 85 l-36 80 16 87 c31
157 89 241 166 241 46 0 89 -39 91 -80 1 -23 2 -22 16 10 39 92 104 132 119
74z m-1029 0 c-3 -4 -2 -15 4 -26 17 -31 4 -50 -24 -37 -35 16 -25 68 12 69 8
0 11 -3 8 -6z m364 -35 c25 -18 28 -25 23 -57 -3 -20 -10 -45 -16 -55 -10 -19
-14 -42 -28 -154 -13 -106 -21 -143 -31 -143 -5 0 -9 -7 -9 -15 0 -8 -12 -18
-26 -21 -22 -6 -33 1 -75 47 -111 121 -123 167 -70 275 58 119 161 174 232
123z m255 -25 c22 -21 25 -30 19 -62 -4 -20 -8 -48 -9 -62 -6 -71 -21 -130
-44 -170 -14 -25 -34 -61 -44 -81 -10 -20 -31 -48 -47 -63 l-29 -28 -28 49
c-15 26 -35 62 -45 78 -14 24 -16 38 -8 75 5 25 13 68 18 95 13 69 34 115 68
146 61 57 109 64 149 23z m-738 -73 c21 -11 44 -31 50 -46 9 -20 18 -26 32
-22 12 3 29 -4 44 -18 41 -38 38 -66 -9 -118 -19 -21 -33 -42 -30 -47 3 -4 -2
-13 -9 -20 -16 -12 -56 2 -56 20 0 6 -7 10 -15 10 -9 0 -18 6 -21 14 -3 8 -19
16 -35 20 -17 3 -28 10 -25 15 4 5 -3 13 -14 16 -18 6 -19 9 -8 23 12 15 11
16 -4 4 -15 -12 -20 -12 -33 1 -8 9 -15 24 -15 35 0 16 6 20 27 17 41 -4 64 7
33 16 -25 7 -25 7 -2 8 18 1 22 5 17 20 -5 15 -1 18 20 13 25 -4 35 11 15 23
-5 3 -10 1 -10 -5 0 -7 -6 -10 -12 -7 -7 2 -21 0 -30 -4 -27 -14 -34 12 -8 33
28 23 51 23 98 -1z m-265 -58 c-7 -2 -19 -2 -25 0 -7 3 -2 5 12 5 14 0 19 -2
13 -5z m-16 -64 c-9 -6 -15 -14 -12 -20 4 -5 -3 -9 -14 -9 -11 0 -23 5 -26 10
-3 6 1 10 9 10 9 0 16 4 16 9 0 10 31 20 40 13 3 -2 -3 -8 -13 -13z m67 -167
c3 -5 -1 -9 -9 -9 -8 0 -12 4 -9 9 3 4 7 8 9 8 2 0 6 -4 9 -8z m33 -38 c2 -5
-12 -8 -29 -7 -48 2 -48 2 -48 11 0 12 73 8 77 -4z m101 -1 c-10 -2 -26 -2
-35 0 -10 3 -2 5 17 5 19 0 27 -2 18 -5z m38 -60 c-9 -10 -76 -14 -76 -5 0 15
9 18 45 14 20 -2 34 -7 31 -9z m39 -93 c-3 -5 -12 -10 -18 -10 -7 0 -6 4 3 10
19 12 23 12 15 0z m75 -220 c0 -5 -5 -10 -11 -10 -5 0 -7 5 -4 10 3 6 8 10 11
10 2 0 4 -4 4 -10z m-183 -56 c-3 -3 -12 -4 -19 -1 -8 3 -5 6 6 6 11 1 17 -2
13 -5z m13 -54 c0 -5 -8 -10 -17 -10 -15 0 -16 2 -3 10 19 12 20 12 20 0z
m-64 -228 c-3 -3 -1 -11 4 -17 8 -9 4 -12 -13 -12 -18 0 -23 4 -21 21 1 11 3
22 3 23 1 1 8 0 16 -4 9 -3 13 -8 11 -11z m2734 -17 c20 -24 -2 -40 -29 -23
-29 18 -56 0 -56 -37 0 -33 24 -52 51 -40 18 7 18 8 2 12 -10 3 -18 11 -18 20
0 12 9 14 39 11 30 -2 42 1 51 15 16 26 61 19 77 -13 12 -24 11 -25 -23 -28
-22 -2 -34 -8 -31 -15 2 -7 16 -11 31 -9 28 3 36 -12 10 -22 -29 -11 -54 -6
-66 13 -12 19 -12 19 -36 0 -54 -42 -122 -11 -122 56 0 45 29 75 74 75 18 0
39 -7 46 -15z m184 -28 c8 -6 8 -10 -1 -14 -19 -7 -16 -64 5 -80 15 -12 14
-13 -13 -11 -28 3 -30 6 -36 53 -5 37 -2 56 9 75 15 23 17 24 20 5 3 -11 9
-24 16 -28z m161 23 c21 -23 35 -26 35 -6 0 8 7 16 15 20 9 3 15 0 15 -10 0
-21 27 -47 35 -34 9 14 65 12 69 -2 3 -7 6 -32 9 -55 l5 -41 -72 1 -71 2 -3
43 c-3 38 -6 43 -33 49 -16 3 -29 9 -29 14 0 5 -9 9 -21 9 -31 0 -18 -22 22
-35 37 -13 50 -45 29 -71 -16 -19 -75 -18 -94 2 -22 21 -20 34 4 34 11 0 20
-5 20 -11 0 -6 10 -9 23 -7 31 4 24 20 -15 32 -57 19 -47 86 12 86 15 0 35 -9
45 -20z m305 1 c0 -11 6 -22 13 -25 10 -5 10 -7 0 -12 -14 -6 -18 -74 -4 -74
4 0 6 11 3 25 -9 47 53 86 86 53 7 -7 12 -20 12 -30 0 -13 -8 -18 -31 -18 -20
0 -29 -4 -26 -12 2 -8 16 -12 32 -10 25 3 27 2 16 -11 -9 -12 -29 -15 -74 -14
l-62 2 -3 43 c-5 68 -42 52 -42 -19 0 -19 -5 -29 -15 -29 -12 0 -15 13 -15 55
l0 55 33 0 c21 0 36 7 45 20 16 25 32 26 32 1z m230 -56 l0 -75 -45 0 c-39 0
-47 4 -57 25 -17 38 0 79 35 83 19 2 27 9 27 23 0 12 7 19 20 19 18 0 20 -7
20 -75z m-3724 -96 c9 -15 -13 -28 -37 -22 -15 4 -17 8 -8 19 14 17 35 18 45
3z"/>
<path d="M2233 8860 c-60 -30 -94 -64 -126 -126 -8 -16 -34 -48 -56 -70 -68
-69 -67 -131 4 -171 22 -13 49 -23 60 -23 11 -1 29 -15 40 -33 12 -18 44 -44
78 -61 53 -27 58 -33 55 -57 -3 -18 -1 -26 6 -21 6 3 22 7 36 8 14 0 37 2 53
2 32 2 37 22 5 23 -17 0 -12 4 17 15 70 27 108 48 143 82 37 36 75 112 70 140
-1 10 15 35 39 59 71 71 67 135 -9 172 -25 11 -56 21 -70 21 -14 0 -55 16 -92
35 -91 47 -165 49 -253 5z m216 -39 c68 -35 130 -127 119 -178 -3 -12 -11 -3
-25 28 -11 26 -38 59 -59 75 -34 27 -45 29 -131 31 -81 2 -97 -1 -114 -18 -10
-10 -19 -27 -19 -38 0 -10 -7 -36 -16 -57 -11 -27 -15 -55 -11 -91 5 -46 3
-53 -12 -53 -10 0 -23 11 -29 25 -16 35 -15 128 2 168 16 40 63 88 108 110 46
23 139 22 187 -2z m-145 -74 c36 -26 -4 -84 -41 -61 -24 15 -27 38 -8 58 20
19 26 20 49 3z m341 -7 c17 -18 17 -21 1 -46 -10 -14 -19 -24 -20 -22 -2 1
-10 22 -19 46 -16 40 -16 42 2 42 10 0 26 -9 36 -20z m-218 -56 c3 -8 -2 -23
-11 -32 -15 -15 -17 -15 -32 0 -21 21 -11 48 16 48 11 0 23 -7 27 -16z m-341
-141 c-4 -4 -13 0 -22 8 -13 13 -13 20 -2 44 l13 28 8 -37 c5 -20 6 -40 3 -43z
m224 67 c0 -5 -4 -10 -10 -10 -5 0 -10 5 -10 10 0 6 5 10 10 10 6 0 10 -4 10
-10z m250 -60 c0 -5 -5 -10 -11 -10 -5 0 -7 5 -4 10 3 6 8 10 11 10 2 0 4 -4
4 -10z m-300 -94 c0 -7 15 -21 33 -30 l32 -17 -30 6 c-58 12 -101 55 -55 55
11 0 20 -6 20 -14z"/>
<path d="M2864 8384 c-12 -29 -18 -51 -13 -49 9 6 43 94 38 99 -2 2 -13 -20
-25 -50z"/>
<path d="M2032 8343 c3 -11 1 -28 -4 -37 -9 -16 -7 -16 12 -6 12 6 28 9 35 6
7 -2 15 4 19 17 6 26 7 25 -34 33 -30 6 -33 5 -28 -13z"/>
<path d="M2434 8322 c-6 -4 -7 -17 -3 -32 7 -24 7 -24 8 -2 1 14 6 22 15 20 8
-2 15 2 16 7 1 13 -22 17 -36 7z"/>
<path d="M2050 8275 c0 -8 5 -15 10 -15 6 0 10 7 10 15 0 8 -4 15 -10 15 -5 0
-10 -7 -10 -15z"/>
<path d="M2121 8274 c0 -11 3 -14 6 -6 3 7 2 16 -1 19 -3 4 -6 -2 -5 -13z"/>
<path d="M2156 8281 c-4 -7 -5 -15 -2 -18 9 -9 19 4 14 18 -4 11 -6 11 -12 0z"/>
<path d="M2370 8270 c0 -5 4 -10 9 -10 6 0 13 5 16 10 3 6 -1 10 -9 10 -9 0
-16 -4 -16 -10z"/>
<path d="M14333 8635 c-11 -33 -10 -35 13 -35 28 0 28 -1 11 39 l-13 32 -11
-36z"/>
<path d="M14464 8626 c-10 -27 1 -71 18 -74 25 -5 43 35 29 64 -12 26 -39 32
-47 10z"/>
<path d="M13372 8628 c-25 -25 -8 -78 25 -78 22 0 36 40 24 66 -12 26 -30 31
-49 12z"/>
<path d="M13687 8633 c-15 -14 -6 -23 23 -23 22 0 28 4 24 15 -6 15 -35 20
-47 8z"/>
<path d="M14584 8627 c-3 -9 -4 -28 -2 -44 2 -22 8 -28 28 -28 23 0 25 4 25
40 0 34 -3 40 -23 43 -13 2 -24 -3 -28 -11z"/>
<path d="M15894 8616 c-9 -38 4 -68 29 -64 18 2 22 10 22 43 0 34 -4 40 -22
43 -17 3 -24 -3 -29 -22z"/>
<path d="M16214 8576 c-18 -14 -18 -15 -1 -21 23 -9 47 1 47 20 0 19 -20 19
-46 1z"/>
<path d="M7960 5134 c0 -8 5 -12 10 -9 6 3 10 10 10 16 0 5 -4 9 -10 9 -5 0
-10 -7 -10 -16z"/>
<path d="M7837 4904 c-14 -15 -6 -34 14 -34 14 0 19 5 17 17 -3 18 -20 27 -31
17z"/>
<path d="M5781 4850 c-1 -8 -8 -41 -15 -72 -12 -49 -12 -57 1 -62 8 -3 11 -1
8 4 -3 6 3 10 14 10 30 0 32 13 12 76 -10 33 -20 52 -20 44z"/>
<path d="M7850 4853 c1 -14 39 -58 45 -52 13 14 -7 59 -26 59 -10 0 -19 -3
-19 -7z"/>
<path d="M8749 4791 c-24 -24 -29 -38 -29 -76 0 -38 5 -52 29 -76 36 -35 64
-37 96 -4 21 20 25 34 25 80 0 46 -4 60 -25 80 -32 33 -60 31 -96 -4z"/>
<path d="M6413 4763 c-7 -2 -13 -20 -13 -39 l0 -34 -69 0 c-39 0 -73 -5 -76
-10 -4 -7 -12 -7 -25 0 -27 14 -28 13 -26 -21 2 -38 28 -56 62 -40 13 6 24 17
24 26 0 11 11 15 44 15 25 0 48 -4 51 -10 9 -15 25 -12 25 4 0 7 8 16 18 19
32 8 39 98 8 96 -6 0 -17 -3 -23 -6z"/>
<path d="M7169 4730 c-7 -23 -27 -54 -45 -69 -24 -21 -29 -32 -21 -40 46 -46
122 46 103 124 -9 37 -24 31 -37 -15z"/>
<path d="M7850 4720 c0 -10 9 -24 20 -30 17 -9 20 -8 20 14 0 13 -7 27 -16 30
-23 9 -24 8 -24 -14z"/>
<path d="M5770 4689 c0 -6 -7 -9 -15 -5 -15 5 -16 3 -19 -45 -2 -24 1 -26 41
-25 45 1 62 16 17 16 -15 0 -23 4 -19 10 4 6 15 8 25 5 13 -4 22 1 29 14 15
27 -3 36 -31 17 -12 -9 -27 -16 -33 -16 -5 1 1 7 14 14 19 11 21 14 7 19 -9 4
-16 2 -16 -4z"/>
<path d="M7963 4528 c19 -37 21 -39 34 -22 18 25 17 28 -20 46 l-34 16 20 -40z"/>
<path d="M5590 4440 c0 -4 9 -10 20 -13 11 -3 20 -2 20 3 0 4 -9 10 -20 13
-11 3 -20 2 -20 -3z"/>
<path d="M6385 4410 c-3 -6 1 -7 9 -4 18 7 21 14 7 14 -6 0 -13 -4 -16 -10z"/>
<path d="M6345 4400 c3 -5 8 -10 11 -10 2 0 4 5 4 10 0 6 -5 10 -11 10 -5 0
-7 -4 -4 -10z"/>
<path d="M6265 4340 c3 -5 11 -10 16 -10 6 0 7 5 4 10 -3 6 -11 10 -16 10 -6
0 -7 -4 -4 -10z"/>
<path d="M6447 4289 c7 -7 15 -10 18 -7 3 3 -2 9 -12 12 -14 6 -15 5 -6 -5z"/>
<path d="M6975 4270 c10 -32 85 -98 118 -104 49 -9 101 -66 123 -135 15 -51
30 -49 55 8 12 28 39 67 60 86 35 31 45 35 94 35 30 0 55 3 55 8 -1 36 -78 56
-186 46 -56 -4 -78 -2 -103 10 -17 9 -31 21 -31 27 0 7 -9 9 -21 6 -12 -3 -27
1 -38 11 -10 11 -38 18 -75 20 -56 4 -58 3 -51 -18z"/>
<path d="M6400 4262 c0 -15 22 -20 50 -11 23 6 23 7 3 8 -12 1 -28 4 -37 7 -9
3 -16 2 -16 -4z"/>
<path d="M6580 4240 c0 -5 5 -10 11 -10 5 0 7 5 4 10 -3 6 -8 10 -11 10 -2 0
-4 -4 -4 -10z"/>
<path d="M7784 4185 c-20 -32 -38 -48 -57 -52 -38 -8 -42 -19 -21 -58 16 -30
17 -41 7 -87 -6 -29 -9 -55 -7 -57 6 -6 25 50 31 89 3 19 23 72 46 117 45 92
45 120 1 48z"/>
<path d="M7545 4170 c-10 -16 4 -30 28 -26 32 5 35 36 3 36 -14 0 -28 -4 -31
-10z"/>
<path d="M6350 4161 c0 -5 9 -7 20 -4 11 3 20 7 20 9 0 2 -9 4 -20 4 -11 0
-20 -4 -20 -9z"/>
<path d="M5651 4136 c21 -18 45 -23 57 -10 11 12 7 14 -24 14 -21 0 -35 -2
-33 -4z"/>
<path d="M5880 4080 c-9 -6 -10 -10 -3 -10 6 0 15 5 18 10 8 12 4 12 -15 0z"/>
<path d="M7883 3935 c0 -33 2 -45 4 -27 2 18 2 45 0 60 -2 15 -4 0 -4 -33z"/>
<path d="M5890 3899 c0 -5 5 -7 10 -4 6 3 10 8 10 11 0 2 -4 4 -10 4 -5 0 -10
-5 -10 -11z"/>
<path d="M7074 3680 c-25 -10 -38 -50 -29 -91 9 -38 25 -37 25 1 0 16 6 33 14
37 16 9 33 63 20 62 -5 0 -19 -4 -30 -9z"/>
<path d="M6176 3662 c-2 -4 4 -9 15 -9 11 -1 17 2 14 8 -7 11 -22 12 -29 1z"/>
<path d="M6227 3659 c7 -7 15 -10 18 -7 3 3 -2 9 -12 12 -14 6 -15 5 -6 -5z"/>
<path d="M6280 3660 c-9 -6 -10 -10 -3 -10 6 0 15 5 18 10 8 12 4 12 -15 0z"/>
<path d="M7515 3651 c-12 -20 -18 -191 -6 -191 6 0 11 8 11 18 0 9 3 54 6 100
4 78 2 93 -11 73z"/>
<path d="M5997 3644 c-17 -17 -4 -24 45 -24 50 0 61 10 16 15 -13 2 -30 6 -39
9 -8 4 -18 3 -22 0z"/>
<path d="M6640 3634 c0 -17 22 -14 28 4 2 7 -3 12 -12 12 -9 0 -16 -7 -16 -16z"/>
<path d="M6098 3602 c-31 -4 -31 -4 -22 -26 3 -9 10 -13 15 -10 5 3 6 10 3 16
-4 7 -2 8 5 4 6 -4 8 -12 5 -18 -4 -6 -1 -9 5 -7 7 3 12 8 11 13 -1 5 4 12 10
16 17 10 0 16 -32 12z"/>
<path d="M5990 3562 c0 -16 3 -31 6 -34 9 -9 44 3 38 13 -3 5 -11 7 -17 3 -7
-3 -5 0 4 8 20 16 13 38 -12 38 -14 0 -19 -7 -19 -28z"/>
<path d="M7753 3470 c0 -25 2 -35 4 -22 2 12 2 32 0 45 -2 12 -4 2 -4 -23z"/>
<path d="M7886 3394 c-9 -23 -7 -36 3 -29 5 3 12 1 16 -5 4 -6 11 -8 16 -5 15
10 10 42 -7 49 -21 8 -21 8 -28 -10z"/>
<path d="M5850 5780 c0 -5 5 -10 10 -10 6 0 10 5 10 10 0 6 -4 10 -10 10 -5 0
-10 -4 -10 -10z"/>
<path d="M5935 5780 c3 -5 8 -10 11 -10 2 0 4 5 4 10 0 6 -5 10 -11 10 -5 0
-7 -4 -4 -10z"/>
<path d="M9725 4797 c-20 -16 -28 -35 -31 -67 -6 -53 10 -88 48 -109 82 -46
144 104 73 175 -30 30 -56 30 -90 1z"/>
<path d="M10275 4795 c-21 -20 -25 -34 -25 -80 0 -46 4 -60 25 -80 27 -28 42
-30 78 -14 30 14 47 48 47 94 0 46 -17 80 -47 94 -36 16 -51 14 -78 -14z"/>
<path d="M11072 4803 c-11 -10 -23 -28 -27 -40 -6 -22 -4 -23 54 -23 58 0 61
1 61 24 0 24 -32 56 -56 56 -7 0 -21 -8 -32 -17z"/>
<path d="M12940 4800 c-11 -11 -20 -29 -20 -40 0 -18 7 -20 60 -20 67 0 74 9
39 54 -24 31 -52 33 -79 6z"/>
<path d="M5281 3576 c-17 -21 -10 -87 12 -100 27 -17 51 5 55 48 4 41 -11 66
-38 66 -10 0 -23 -6 -29 -14z"/>
<path d="M8842 3561 c-22 -62 21 -115 64 -81 17 15 19 81 2 98 -23 23 -55 14
-66 -17z"/>
<path d="M9842 3578 c-13 -13 -16 -66 -6 -92 7 -19 45 -21 62 -4 7 7 12 28 12
48 0 39 -14 60 -40 60 -9 0 -21 -5 -28 -12z"/>
<path d="M5466 3574 c-9 -24 -9 -24 34 -24 38 0 40 2 30 20 -13 24 -55 27 -64
4z"/>
<path d="M8372 3578 c-21 -21 -13 -28 33 -28 25 0 45 4 45 8 0 15 -24 32 -45
32 -12 0 -26 -5 -33 -12z"/>
<path d="M8673 3513 c-35 -7 -31 -43 5 -43 30 0 52 16 52 37 0 13 -14 14 -57
6z"/>
<path d="M9402 3578 c-21 -21 -13 -28 33 -28 43 0 45 1 35 20 -12 22 -49 27
-68 8z"/>
<path d="M10010 3570 c-10 -19 -8 -20 35 -20 46 0 54 7 33 28 -19 19 -56 14
-68 -8z"/>
<path d="M10279 3563 c-6 -17 -7 -40 -2 -58 8 -26 14 -30 43 -30 30 0 35 4 44
33 13 48 -5 82 -44 82 -24 0 -33 -6 -41 -27z"/>
<path d="M10570 3570 c-10 -19 -8 -20 35 -20 46 0 54 7 33 28 -19 19 -56 14
-68 -8z"/>
<path d="M11043 3513 c-15 -3 -23 -12 -23 -24 0 -27 55 -27 70 0 17 33 12 35
-47 24z"/>
<path d="M11532 3578 c-21 -21 -13 -28 33 -28 25 0 45 4 45 8 0 15 -24 32 -45
32 -12 0 -26 -5 -33 -12z"/>
<path d="M12070 3570 c-10 -19 -8 -20 35 -20 46 0 54 7 33 28 -19 19 -56 14
-68 -8z"/>
<path d="M12420 3571 c-15 -28 -12 -77 4 -91 43 -35 90 23 67 83 -13 33 -55
38 -71 8z"/>
<path d="M12662 3561 c-8 -22 -8 -40 0 -62 9 -26 15 -30 41 -27 38 4 57 42 41
86 -7 20 -17 28 -41 30 -26 3 -32 -1 -41 -27z"/>
<path d="M13370 3570 c-10 -19 -8 -20 35 -20 46 0 54 7 33 28 -19 19 -56 14
-68 -8z"/>
<path d="M6525 3170 c-3 -5 1 -10 10 -10 9 0 13 5 10 10 -3 6 -8 10 -10 10 -2
0 -7 -4 -10 -10z"/>
<path d="M6536 3141 c8 -8 43 -8 38 0 -2 4 -13 7 -24 6 -10 -1 -17 -3 -14 -6z"/>
<path d="M6504 3041 c7 -10 31 -9 42 2 4 4 -5 7 -20 7 -15 0 -25 -4 -22 -9z"/>
<path d="M6508 3013 c7 -3 16 -2 19 1 4 3 -2 6 -13 5 -11 0 -14 -3 -6 -6z"/>
<path d="M6156 3162 c-2 -4 4 -9 15 -9 11 -1 17 2 14 8 -7 11 -22 12 -29 1z"/>
<path d="M7722 2597 c-14 -38 -16 -117 -4 -117 16 0 33 51 22 65 -6 7 -8 29
-5 49 8 45 3 46 -13 3z"/>
<path d="M7650 2420 c0 -11 5 -20 10 -20 6 0 10 9 10 20 0 11 -4 20 -10 20 -5
0 -10 -9 -10 -20z"/>
<path d="M7492 2198 c-24 -52 -27 -62 -12 -53 15 9 42 73 37 87 -2 7 -14 -8
-25 -34z"/>
<path d="M7322 2130 c-13 -22 -16 -70 -4 -70 11 0 42 55 42 74 0 22 -23 20
-38 -4z"/>
<path d="M6540 1872 c0 -5 7 -9 15 -9 8 0 12 4 9 9 -3 4 -9 8 -15 8 -5 0 -9
-4 -9 -8z"/>
<path d="M6573 1843 c9 -2 23 -2 30 0 6 3 -1 5 -18 5 -16 0 -22 -2 -12 -5z"/>
<path d="M6480 1589 c0 -5 5 -7 10 -4 6 3 10 8 10 11 0 2 -4 4 -10 4 -5 0 -10
-5 -10 -11z"/>
<path d="M6390 1440 c-14 -9 -13 -11 11 -14 6 0 17 -10 25 -20 20 -29 28 -12
9 18 -19 29 -23 30 -45 16z"/>
<path d="M6515 1390 c4 -6 11 -8 16 -5 14 9 11 15 -7 15 -8 0 -12 -5 -9 -10z"/>
<path d="M6498 1203 c7 -3 16 -2 19 1 4 3 -2 6 -13 5 -11 0 -14 -3 -6 -6z"/>
<path d="M6448 1113 c7 -3 16 -2 19 1 4 3 -2 6 -13 5 -11 0 -14 -3 -6 -6z"/>
<path d="M6398 1083 c7 -3 16 -2 19 1 4 3 -2 6 -13 5 -11 0 -14 -3 -6 -6z"/>
<path d="M6540 1000 c0 -5 7 -10 16 -10 8 0 12 5 9 10 -3 6 -10 10 -16 10 -5
0 -9 -4 -9 -10z"/>
<path d="M6618 993 c6 -2 9 -10 6 -15 -4 -6 -2 -8 4 -4 5 3 13 0 15 -6 4 -8 6
-7 6 3 1 15 -20 30 -37 28 -4 0 -1 -3 6 -6z"/>
<path d="M6527 2619 c7 -7 15 -10 18 -7 3 3 -2 9 -12 12 -14 6 -15 5 -6 -5z"/>
<path d="M6588 2588 c9 -9 15 -9 24 0 9 9 7 12 -12 12 -19 0 -21 -3 -12 -12z"/>
<path d="M9180 1570 c0 -5 7 -10 16 -10 8 0 12 5 9 10 -3 6 -10 10 -16 10 -5
0 -9 -4 -9 -10z"/>
<path d="M9530 1543 c0 -18 5 -33 10 -33 6 0 10 7 10 16 0 8 14 20 30 25 41
15 38 24 -10 24 -39 0 -40 -1 -40 -32z"/>
<path d="M9590 1530 c-8 -5 -11 -12 -7 -16 4 -4 13 -2 19 4 15 15 7 24 -12 12z"/>
<path d="M9820 1570 c0 -5 7 -10 16 -10 8 0 12 5 9 10 -3 6 -10 10 -16 10 -5
0 -9 -4 -9 -10z"/>
<path d="M9937 1574 c-4 -4 -7 -20 -7 -36 0 -35 23 -34 28 1 4 25 -10 46 -21
35z"/>
</g>
</svg>
